<svg xmlns="http://www.w3.org/2000/svg" viewBox="0 0 213 105"><defs><linearGradient x1="11.231%" y1="79.51%" x2="82.004%" y2="8.737%" id="a"><stop stop-color="#EC2227" offset="0%"/><stop stop-color="#EE3F31" offset="3%"/><stop stop-color="#EF533D" offset="6%"/><stop stop-color="#F16A4F" offset="10%"/><stop stop-color="#F37C5F" offset="14%"/><stop stop-color="#F58C6F" offset="18%"/><stop stop-color="#F69A7F" offset="22%"/><stop stop-color="#F8AB92" offset="27%"/><stop stop-color="#FABBA5" offset="32%"/><stop stop-color="#FBCCB9" offset="38%"/><stop stop-color="#FDDCCE" offset="45%"/><stop stop-color="#FEEDE5" offset="55%"/><stop stop-color="#FFF" offset="80%"/><stop stop-color="#FFF" offset="100%"/></linearGradient><linearGradient x1="11.231%" y1="79.51%" x2="82.004%" y2="8.737%" id="b"><stop stop-color="#FFC316" offset="0%"/><stop stop-color="#FFC316" offset="25%"/><stop stop-color="#E4C34C" offset="35%"/><stop stop-color="#E5CC67" offset="45%"/><stop stop-color="#E6D27E" offset="55%"/><stop stop-color="#E8DA97" offset="65%"/><stop stop-color="#EAE1B0" offset="75%"/><stop stop-color="#FFF0D1" offset="85%"/><stop stop-color="#FFF9ED" offset="95%"/><stop stop-color="#FFF" offset="100%"/></linearGradient><linearGradient x1="100.449%" y1="41.762%" x2=".356%" y2="41.762%" id="c"><stop stop-color="#EC2227" offset="0%"/><stop stop-color="#EC2227" offset="10%"/><stop stop-color="#EF5226" offset="21%"/><stop stop-color="#F37225" offset="31%"/><stop stop-color="#F68D23" offset="41%"/><stop stop-color="#E4B139" offset="51%"/><stop stop-color="#FFC316" offset="60%"/><stop stop-color="#FFC93F" offset="65%"/><stop stop-color="#FFD05F" offset="70%"/><stop stop-color="#FFD77B" offset="75%"/><stop stop-color="#FFDE94" offset="80%"/><stop stop-color="#FFE5AD" offset="85%"/><stop stop-color="#FFEDC6" offset="90%"/><stop stop-color="#FFF4E0" offset="95%"/><stop stop-color="#FFF" offset="100%"/></linearGradient><linearGradient x1="100.258%" y1="43.55%" x2=".344%" y2="43.55%" id="d"><stop stop-color="#EC2227" offset="0%"/><stop stop-color="#EF5226" offset="11%"/><stop stop-color="#F37225" offset="21%"/><stop stop-color="#F68D23" offset="31%"/><stop stop-color="#E4B139" offset="41%"/><stop stop-color="#FFC316" offset="50%"/><stop stop-color="#E4C34E" offset="57%"/><stop stop-color="#FFD267" offset="64%"/><stop stop-color="#FFD984" offset="71%"/><stop stop-color="#FFE1A0" offset="78%"/><stop stop-color="#FFEABC" offset="85%"/><stop stop-color="#FFF2D9" offset="92%"/><stop stop-color="#FFFDF8" offset="99%"/><stop stop-color="#FFF" offset="100%"/></linearGradient><linearGradient x1=".333%" y1="79.854%" x2="100.339%" y2="79.854%" id="e"><stop stop-color="#1B8ECE" offset="0%"/><stop stop-color="#3293C2" offset="15%"/><stop stop-color="#4299B7" offset="27%"/><stop stop-color="#4E9EAD" offset="37%"/><stop stop-color="#59A3A0" offset="47%"/><stop stop-color="#62A894" offset="56%"/><stop stop-color="#6BAD87" offset="65%"/><stop stop-color="#75B279" offset="74%"/><stop stop-color="#7EB866" offset="83%"/><stop stop-color="#86BE54" offset="91%"/><stop stop-color="#8EC542" offset="99%"/><stop stop-color="#8FC640" offset="100%"/></linearGradient><linearGradient x1="69.294%" y1="3.644%" x2="-99.817%" y2="171.951%" id="f"><stop stop-color="#FFC316" offset="0%"/><stop stop-color="#FFC316" offset="20%"/><stop stop-color="#E4C34C" offset="28%"/><stop stop-color="#E5CB67" offset="36%"/><stop stop-color="#E6D27D" offset="44%"/><stop stop-color="#E8DA96" offset="52%"/><stop stop-color="#EAE1AF" offset="60%"/><stop stop-color="#FFEFD0" offset="68%"/><stop stop-color="#FFF8EB" offset="76%"/><stop stop-color="#FFF" offset="80%"/><stop stop-color="#FFF" offset="100%"/></linearGradient><linearGradient x1="865.173%" y1="-603.588%" x2="-1241.43%" y2="3251.496%" id="g"><stop stop-color="#FFC316" offset="0%"/><stop stop-color="#E4C34E" offset="6%"/><stop stop-color="#E5CC68" offset="12%"/><stop stop-color="#E6D37F" offset="19%"/><stop stop-color="#E9DA98" offset="27%"/><stop stop-color="#EAE1B0" offset="36%"/><stop stop-color="#EBEACA" offset="47%"/><stop stop-color="#FFF8EA" offset="64%"/><stop stop-color="#FFF" offset="100%"/></linearGradient><linearGradient x1="148.834%" y1="-10.073%" x2="-83.723%" y2="224.353%" id="h"><stop stop-color="#FFC316" offset="0%"/><stop stop-color="#E4C34E" offset="6%"/><stop stop-color="#E5CC68" offset="12%"/><stop stop-color="#E6D37F" offset="19%"/><stop stop-color="#E9DA98" offset="27%"/><stop stop-color="#EAE1B0" offset="36%"/><stop stop-color="#EBEACA" offset="47%"/><stop stop-color="#FFF8EA" offset="64%"/><stop stop-color="#FFF" offset="100%"/></linearGradient><linearGradient x1="102.361%" y1="47.566%" x2="-505.442%" y2="47.566%" id="i"><stop stop-color="#EC2227" offset="0%"/><stop stop-color="#EF5326" offset="13%"/><stop stop-color="#F37325" offset="25%"/><stop stop-color="#F68F23" offset="37%"/><stop stop-color="#E4B139" offset="49%"/><stop stop-color="#FFC316" offset="58%"/><stop stop-color="#E4C34F" offset="64%"/><stop stop-color="#FFD269" offset="70%"/><stop stop-color="#FFDA86" offset="76%"/><stop stop-color="#FFE2A3" offset="82%"/><stop stop-color="#FFEBC1" offset="88%"/><stop stop-color="#FFF4DE" offset="94%"/><stop stop-color="#FFF" offset="100%"/></linearGradient><linearGradient x1="214.69%" y1="-1.564%" x2="-1068.593%" y2="-1.564%" id="j"><stop stop-color="#EC2227" offset="0%"/><stop stop-color="#EF5326" offset="13%"/><stop stop-color="#F37325" offset="25%"/><stop stop-color="#F68F23" offset="37%"/><stop stop-color="#E4B139" offset="49%"/><stop stop-color="#FFC316" offset="58%"/><stop stop-color="#E4C34F" offset="64%"/><stop stop-color="#FFD269" offset="70%"/><stop stop-color="#FFDA86" offset="76%"/><stop stop-color="#FFE2A3" offset="82%"/><stop stop-color="#FFEBC1" offset="88%"/><stop stop-color="#FFF4DE" offset="94%"/><stop stop-color="#FFF" offset="100%"/></linearGradient><linearGradient x1="-625.905%" y1="81.212%" x2="102.468%" y2="81.212%" id="k"><stop stop-color="#1B8ECE" offset="0%"/><stop stop-color="#3293C2" offset="15%"/><stop stop-color="#4299B7" offset="27%"/><stop stop-color="#4E9EAD" offset="37%"/><stop stop-color="#59A3A0" offset="47%"/><stop stop-color="#62A894" offset="56%"/><stop stop-color="#6BAD87" offset="65%"/><stop stop-color="#75B279" offset="74%"/><stop stop-color="#7EB866" offset="83%"/><stop stop-color="#86BE54" offset="91%"/><stop stop-color="#8EC542" offset="99%"/><stop stop-color="#8FC640" offset="100%"/></linearGradient></defs><g fill-rule="nonzero" fill="none"><path d="M127.47 29.51a3.53 3.53 0 10-5 0 3.52 3.52 0 005 0zm5.81 53.26a2.75 2.75 0 10-3.89-.05 2.75 2.75 0 003.89.06v-.01zm-15.57-46.38a3.53 3.53 0 10-1-4.9 3.55 3.55 0 001 4.91v-.01zm16.69 50.62a2.75 2.75 0 10-.65-3.83 2.75 2.75 0 00.65 3.84v-.01zm5-59.16a2.75 2.75 0 10-.81 3.8 2.74 2.74 0 00.83-3.79l-.02-.01zm-6.42-2.94a3.53 3.53 0 10-4.91-.9 3.53 3.53 0 004.93.91l-.02-.01zM113.84 69.2a3.53 3.53 0 10-4.14-2.78 3.53 3.53 0 004.16 2.79l-.02-.01zm5.3 3.94a3.53 3.53 0 10-1.83 4.65 3.53 3.53 0 001.89-4.64l-.06-.01zm-6.79-12.17a3.53 3.53 0 10-3.52-3.53 3.53 3.53 0 003.54 3.54l-.02-.01zm1.79-16.3a3.54 3.54 0 10-2-4.59 3.53 3.53 0 002.06 4.6l-.06-.01zm-1.69 8.19a3.53 3.53 0 10-2.8-4.12 3.52 3.52 0 002.82 4.13l-.02-.01zm9.36 6.66a2.75 2.75 0 10-2.69-2.81 2.76 2.76 0 002.71 2.8l-.02.01zm17.86-38.32a3.53 3.53 0 10-4.64-1.83 3.53 3.53 0 004.66 1.84l-.02-.01zm-5.74 14.18a2.75 2.75 0 10-3.88-.06 2.75 2.75 0 003.9.07l-.02-.01zm-8.12 1.06a2.75 2.75 0 103.83-.65 2.75 2.75 0 00-3.81.66l-.02-.01zm3 41.59a2.75 2.75 0 10-3.81-.81 2.76 2.76 0 003.81.82v-.01zm19-59.35a3.53 3.53 0 10-4.15-2.78 3.52 3.52 0 004.12 2.79l.03-.01zm-6.83 8.39a2.75 2.75 0 101.6-3.55 2.76 2.76 0 00-1.63 3.56l.03-.01zm-18.65 15.44a2.75 2.75 0 103.64-1.37 2.76 2.76 0 00-3.64 1.37zm.48 23.22a2.75 2.75 0 10-3.17-2.25 2.77 2.77 0 003.17 2.29v-.04zm2.22 6.13a2.75 2.75 0 10-3.55-1.6 2.76 2.76 0 003.55 1.64v-.04zm-2.16 8a3.53 3.53 0 10-.9 4.91 3.53 3.53 0 00.9-4.92v.01zm-2.91-30.11a2.75 2.75 0 103.27-2.1 2.75 2.75 0 00-3.27 2.09v.01zm78.37 12.28a3.53 3.53 0 102.81 4.13 3.54 3.54 0 00-2.81-4.14v.01zm-28.48 25.8a2.75 2.75 0 10-1.6 3.55 2.76 2.76 0 001.6-3.56v.01zm-42.38-2.44a3.53 3.53 0 100 5 3.52 3.52 0 000-5.01v.01zm60.1-18.12a2.75 2.75 0 10-2.11-3.27 2.75 2.75 0 002.11 3.26v.01zM171.11 93.7a3.52 3.52 0 104.64 1.83 3.53 3.53 0 00-4.64-1.84v.01zm12.34-23.6a2.75 2.75 0 103.64-1.38 2.75 2.75 0 00-3.64 1.37v.01zm-3 5.17a2.75 2.75 0 103.83-.65 2.75 2.75 0 00-3.79.64l-.04.01zm16.15-5a3.53 3.53 0 102 4.59 3.54 3.54 0 00-1.96-4.64l-.04.05zm-3.55 8.28a3.53 3.53 0 101 4.9 3.53 3.53 0 00-.96-4.94l-.04.04zm-9.76 6.88a3.53 3.53 0 105 0 3.52 3.52 0 00-4.96-.05l-.04.05zm-11.09-2.19a2.75 2.75 0 103.8.8 2.74 2.74 0 00-3.8-.8zm5.61 6.74a3.53 3.53 0 104.91.9 3.52 3.52 0 00-4.92-.9h.01zm-1-10.47a2.75 2.75 0 103.89.06 2.76 2.76 0 00-3.86-.06h-.03zm-28 8a2.75 2.75 0 102.1 3.28 2.75 2.75 0 00-2.05-3.28h-.05zm-6.1-2a2.75 2.75 0 101.38 3.64 2.75 2.75 0 00-1.33-3.64h-.05zm5.26 10.75a3.53 3.53 0 102.81 4.12 3.52 3.52 0 00-2.76-4.13l-.05.01zm15 0a3.53 3.53 0 104.15 2.78 3.53 3.53 0 00-4.1-2.84l-.05.06zm-22.35-2.11a3.53 3.53 0 102 4.6 3.54 3.54 0 00-1.95-4.66l-.05.06zm-7.29-3.85a3.53 3.53 0 101 4.9 3.53 3.53 0 00-.95-4.96l-.05.06zm28.08 3a2.75 2.75 0 10-3.17-2.26 2.76 2.76 0 003.22 2.17l-.05.09zm-6.06 3.73a3.54 3.54 0 103.53 3.53 3.53 3.53 0 00-3.48-3.62l-.05.09zm-2.89-73a2.75 2.75 0 10-2.25 3.17 2.76 2.76 0 002.3-3.26l-.05.09zm2.16 69.77a2.75 2.75 0 10-2.69-2.8 2.76 2.76 0 002.74 2.71l-.05.09zm56.92-89.81V2.51a1.36 1.36 0 01-1.37-1.36v-.06h-1.49v.06a1.37 1.37 0 01-2.73 0v-.06h-1.48v.06a1.37 1.37 0 01-2.73 0 .13.13 0 010-.06h-1.49v.06a1.36 1.36 0 01-1.36 1.36 1.37 1.37 0 01-1.37-1.36v-.06h-1.48v.06a1.37 1.37 0 01-2.73 0v-.06h-1.41v.06a1.36 1.36 0 01-1.37 1.36 1.36 1.36 0 01-1.36-1.25v-.11-.06h-1.49a.13.13 0 010 .06 1.37 1.37 0 01-2.73 0v-.06h-1.48v.06a1.37 1.37 0 01-2.73 0v-.06h-1.49v.06a1.36 1.36 0 01-.92 1.28 1.33 1.33 0 01-.45.08 1.36 1.36 0 01-1.21-.74 1.42 1.42 0 01-.16-.62v-.06h-1.48v.08a1.37 1.37 0 01-2.73 0v-.06h-1.48v.06a1.37 1.37 0 01-2.74 0v-.06h-1.49a.13.13 0 010 .06 1.37 1.37 0 01-2.73 0v-.06h-1.48v.06a1.37 1.37 0 01-2.73 0v-.06h-1.49v.06a1.37 1.37 0 01-2.74 0v-.06h-1.48v.06a1.36 1.36 0 01-1.36 1.36h-.06v1.48a1.37 1.37 0 010 2.73v1.48a1.36 1.36 0 010 2.72v1.41a3.52 3.52 0 001.31 5.39.69.69 0 010 .13.5.5 0 010 .12 1.36 1.36 0 01-1.35 1.36v1.48c.72.02 1.304.59 1.34 1.31v.13a2.81 2.81 0 00-.54 1 1.32 1.32 0 01-.8.28v1.48a1.39 1.39 0 011.32 1.09c.01.09.01.18 0 .27a1.37 1.37 0 01-1.35 1.37v1.48a1.37 1.37 0 011.35 1.36 1.36 1.36 0 01-1.35 1.36v1.48a1.36 1.36 0 011.29 1c.034.117.055.238.06.36a1.37 1.37 0 01-1.35 1.37v1.34a1.36 1.36 0 010 2.72v1.48a1.37 1.37 0 011.35 1.37 1.36 1.36 0 01-1.34 1.32v1.48a1 1 0 01.36.06c.589.158.998.69 1 1.3.01.09.01.18 0 .27a1.37 1.37 0 01-1.32 1.1v1.48a1.36 1.36 0 010 2.72v1.48a1.37 1.37 0 010 2.73v1.48a1.34 1.34 0 011.12.6c.185.23.29.515.3.81h1.48a1.36 1.36 0 112.72 0h1.49a1.36 1.36 0 112.72 0h1.48a1.36 1.36 0 01.78-1.18 1.24 1.24 0 01.58-.14 1.38 1.38 0 011.37 1.32h1.66a1.37 1.37 0 011-1.28 1.17 1.17 0 01.32 0 1.36 1.36 0 011.36 1.32h1.48a1.37 1.37 0 012.73 0h1.48a1.36 1.36 0 011.36-1.32h.1a1.35 1.35 0 011.26 1.31h1.48a1.38 1.38 0 011.37-1.32c.1-.01.2-.01.3 0a1.38 1.38 0 011.06 1.29h1.48a1.36 1.36 0 011.24-1.31 2.75 2.75 0 005.27.39c.25.242.397.572.41.92h1.48a1.37 1.37 0 011.37-1.32 1.1 1.1 0 01.31 0h.08a3.52 3.52 0 005.73 1.25h.92a1.37 1.37 0 012.73 0H206a1.36 1.36 0 112.72 0h1.48a1.24 1.24 0 010-.27 1.37 1.37 0 011.35-1.15v-1.48a1.37 1.37 0 110-2.73v-1.48a1.37 1.37 0 110-2.73v-1.49a1.37 1.37 0 110-2.73v-1.27a1.37 1.37 0 110-2.73v-1.49a1.37 1.37 0 010-2.74v-1.48a1.56 1.56 0 01-.44-.07 1.37 1.37 0 01.44-2.66v-1.48a1.37 1.37 0 110-2.73v-1.48a1.37 1.37 0 110-2.73v-1.48h-.06a1.36 1.36 0 01-1.22-1.92c.22-.493.71-.81 1.25-.81v-1.49a1.37 1.37 0 110-2.73v-1.48a1.37 1.37 0 110-2.73V10.8a1.37 1.37 0 110-2.73V6.59a1.37 1.37 0 110-2.73l.02.13z" fill="#FFF"/><path d="M154.61 103.415h.36l.34-.08.33-.1.32-.13.3-.17.28-.19.26-.21.24-.24.22-.26.19-.28.16-.3.14-.32.1-.33.07-.35V99.385l-.07-.35-.1-.33-.14-.32-.16-.3-.19-.28-.21-.26-.24-.24-.27-.21-.28-.2-.3-.16-.31-.13-.34-.11-.34-.07h-1.1l-.34.07-.33.11-.32.13-.3.16-.28.19-.26.22-.24.24-.22.26-.19.28-.16.3-.14.32-.1.33-.07.35V100.455l.07.35.1.33.14.32.16.3.19.28.22.26.24.24.26.21.28.19.3.17.32.13.33.1.34.08h.74zm-8-.76h.34l.34-.07.32-.11.31-.13.3-.16.28-.19.26-.22.24-.24.22-.27.19-.28.16-.31.14-.32.1-.35V98.575l-.07-.33-.1-.33-.14-.31-.16-.3-.19-.28-.22-.26-.24-.24-.26-.22-.29-.19-.31-.16-.32-.13-.35-.11h-1.15l-.6.1-.56.21-.52.29-.47.38-.39.46-.32.52-.17.43-.09.31V99.805l.07.34.11.32.13.31.17.3.19.28.21.26.24.24.27.22.28.19.31.16.33.13.34.11h.71l.36-.01zm16.61-.08h.36l.34-.1.33-.14.3-.16.29-.2.26-.21.24-.25.22-.26.19-.28.16-.3.13-.31.1-.33.07-.33v-1.32l-.07-.31-.23-.58-.32-.52-.39-.45-.46-.37-.52-.3-.57-.2-.59-.11h-1.18l-.34.1-.32.14-.31.17-.28.19-.27.22-.24.24-.21.26-.19.28-.16.3-.13.31-.11.33-.07.33v1.41l.1.35.14.32.16.31.2.28.21.27.24.23.27.22.28.19.3.16.31.13.33.1.33.07h.7l.4.12zm-24.61-2.26h.34l.33-.08.32-.1.31-.13.3-.16.28-.19.27-.22.24-.25.22-.26.19-.3.17-.32.07-.16.06-.17.1-.35.07-.34v-1.03l-.07-.34-.11-.32-.13-.31-.16-.3-.19-.28-.22-.26-.24-.25-.27-.22-.3-.19-.31-.17-.17-.07-.16-.06-.33-.09-.33-.07h-.76l-.51.08-.5.15-.46.22-.43.29-.39.35-.34.4-.27.47-.11.25-.07.17-.1.35-.06.34v1.03l.07.33.1.33.14.31.16.3.19.28.22.26.24.24.27.22.29.2.32.16.17.07.17.07.34.1.35.06h.34l.35-.04zm33.13-.45h.34l.35-.07.34-.11.16-.07.17-.07.31-.18.29-.2.26-.22.24-.25.21-.27.18-.29.16-.3.12-.31.1-.33.06-.33v-1.03l-.07-.35-.11-.34-.07-.17-.11-.24-.28-.45-.34-.39-.39-.34-.42-.27-.46-.21-.48-.15-.51-.07h-.78l-.35.08-.35.11-.17.07-.17.07-.31.18-.29.2-.26.22-.24.25-.21.27-.19.29-.15.3-.12.32-.1.32-.06.34v1.02l.07.35.11.34.07.17.08.16.17.32.2.29.23.26.25.24.27.21.28.18.31.15.31.13.33.09.33.06h.34l.35.02zm-41.12-3.75h.33l.34-.07.32-.1.32-.12.3-.16.29-.19.27-.22.25-.25.23-.27.1-.15.1-.15.17-.32.13-.32.1-.34.07-.34v-1.01l-.06-.34-.1-.32-.13-.32-.16-.3-.18-.29-.22-.27-.25-.25-.27-.23-.15-.1-.23-.15-.48-.22-.5-.15-.5-.07h-.48l-.42.06-.41.1-.4.15-.38.19-.36.25-.33.29-.29.34-.13.18-.1.16-.17.31-.13.33-.1.33-.07.34v1.02l.06.33.1.32.13.32.15.3.19.29.22.27.25.25.27.23.15.1.16.1.31.17.33.13.33.1.34.07h.34l.35-.01zm48.41-.29h.34l.34-.07.33-.1.32-.14.32-.17.15-.1.15-.1.27-.24.24-.25.22-.27.18-.29.16-.31.12-.31.09-.33.07-.33v-1.02l-.07-.34-.11-.33-.13-.32-.18-.32-.1-.15-.13-.18-.29-.33-.33-.29-.35-.24-.38-.19-.39-.15-.41-.09-.42-.05h-.47l-.51.07-.51.16-.48.23-.23.16-.15.1-.28.23-.24.26-.22.27-.18.29-.15.3-.13.32-.09.33-.06.33v1.02l.07.33.1.33.14.33.17.31.1.15.11.15.23.27.25.25.27.21.29.19.31.15.31.13.33.09.33.06h.34l.34-.01zm-24.92-2.72l.4-.08.5-.2.45-.29.38-.37.3-.43.22-.49.1-.4V90.015l-.09-.41-.19-.49-.29-.45-.37-.38-.43-.3-.49-.22-.4-.1h-.75l-.53.11-.49.2-.43.29-.37.36-.3.43-.22.49-.12.53v.7l.08.4.2.5.29.44.36.38.44.31.48.21.4.1h.56l.31-.01zm6.23-.46h.28l.27-.07.38-.16.45-.29.39-.36.3-.43.22-.49.13-.52V89.255l-.17-.47-.24-.41-.31-.37-.36-.3-.41-.24-.45-.16-.48-.09h-.84l-.27.07-.38.16-.46.29-.38.36-.3.43-.22.49-.12.52v.97l.08.26.15.38.29.46.36.38.43.3.48.22.53.13h.41l.24.01zm-12.8-.28l.52-.1.49-.2.45-.28.38-.37.31-.44.17-.37.09-.27v-.96l-.1-.53-.19-.49-.29-.44-.37-.39-.43-.31-.38-.17-.26-.08H146.97l-.46.08-.44.15-.4.22-.36.29-.3.34-.25.4-.18.44-.06.24V89.945l.1.53.2.49.28.45.37.38.43.31.38.17.26.08h.55l.45.01zm19.33-1.46l.27-.08h.13l.13-.06.25-.12.35-.23.38-.37.31-.43.22-.48.12-.52v-.53l-.06-.41-.07-.27-.05-.13-.08-.2-.22-.38-.26-.32-.3-.28-.34-.23-.37-.18-.39-.12-.41-.06h-.45l-.49.09-.24.08-.13.05-.25.13-.34.22-.39.37-.3.44-.22.48-.12.51v.54l.06.4.07.27v.14l.06.13.12.25.23.34.37.39.43.31.48.21.52.12h.53l.45-.07zm-25.49-.82l.49-.19.45-.28.4-.36.24-.33.14-.24.06-.13.06-.13.09-.27.08-.4v-.53l-.09-.52-.19-.5-.27-.45-.37-.39-.33-.25-.24-.14-.13-.06-.13-.06-.28-.09-.29-.06h-1l-.38.11-.35.16-.33.21-.3.25-.26.3-.22.34-.09.19-.06.13-.09.27-.08.4v.53l.09.53.18.49.28.45.37.39.33.25.24.14.13.06.13.06.26.08.4.09h.54l.52-.05zm-17.21.73h.34l.33-.07.33-.09.32-.13.3-.17.3-.19.27-.22.13-.13.13-.13.23-.28.19-.29.16-.31.13-.32.1-.33.06-.33v-1.01l-.06-.34-.1-.33-.13-.31-.16-.31-.19-.3-.23-.27-.13-.13-.13-.13-.28-.23-.29-.19-.31-.16-.32-.13-.32-.1-.34-.06h-1.01l-.33.06-.33.1-.32.13-.31.16-.29.19-.28.23-.13.13-.13.13-.22.27-.2.3-.16.31-.13.31-.09.33-.07.34v1.01l.07.33.09.33.13.32.16.31.2.29.22.28.13.13.13.13.28.22.29.2.31.16.32.13.33.09.33.07h.68zm61.18 0l.34-.07.32-.09.32-.13.31-.17.29-.19.28-.22.13-.13.13-.13.22-.28.2-.29.16-.31.13-.32.09-.33.07-.33v-1.01l-.07-.34-.09-.33-.13-.31-.16-.31-.2-.3-.22-.27-.13-.13-.13-.13-.28-.23-.29-.19-.31-.16-.32-.13-.33-.1-.33-.06h-1.01l-.34.06-.32.1-.32.13-.31.16-.29.19-.28.23-.13.13-.13.13-.23.27-.19.3-.16.31-.13.31-.1.33-.06.33v1.02l.06.33.1.33.13.32.16.31.19.29.23.28.13.13.13.13.28.22.29.19.31.17.32.13.32.09.34.07h1.01zm-11.9-3.18l.39-.14.24-.13.13-.07.11-.08.22-.18.29-.29.3-.45.2-.48.11-.52v-.53l-.09-.53-.15-.38-.12-.25-.08-.12-.1-.15-.23-.27-.26-.23-.28-.2-.29-.15-.32-.12-.32-.09h-.7l-.38.06-.38.11-.37.17-.17.11-.12.08-.22.17-.29.29-.3.45-.2.49-.11.51v.53l.09.53.15.38.12.25.08.12.08.12.17.22.3.28.44.3.49.21.51.11h.53l.53-.13zm-37.72-.75l.5-.19.46-.28.3-.27.18-.21.09-.12.08-.12.13-.24.16-.38.12-.52v-.53l-.09-.52-.18-.49-.28-.46-.28-.3-.21-.19-.11-.08-.18-.13-.39-.19-.4-.12-.41-.07h-.69l-.31.07-.31.11-.29.15-.27.18-.26.22-.22.25-.11.14-.08.12-.13.24-.16.38-.12.52v.53l.09.52.18.49.28.46.28.3.21.19.11.08.12.08.24.14.38.16.52.12h.55l.5-.04zm42.8-3.3l.5-.2.35-.21.21-.18.11-.09.1-.1.18-.22.22-.34.21-.49.11-.52v-.53l-.1-.52-.19-.5-.22-.35-.17-.22-.1-.1-.1-.1-.22-.19-.35-.22-.5-.21-.53-.11h-.53l-.51.1-.49.19-.45.3-.21.18-.1.1-.17.22-.23.34-.21.49-.11.52v.53l.09.52.19.5.22.35.17.22.1.1.1.1.21.18.35.23.49.21.52.1h.53l.53-.08zm-59.3 1.21h.34l.34-.06.33-.11.32-.14.32-.17.15-.1.15-.1.27-.24.24-.25.22-.27.18-.29.16-.31.12-.31.09-.33.06-.33v-1.02l-.07-.34-.11-.33-.13-.32-.18-.32-.1-.15-.13-.18-.29-.33-.33-.28-.35-.24-.38-.2-.39-.14-.41-.1H118.76l-.51.08-.51.15-.48.24-.23.15-.15.1-.28.24-.24.25-.21.27-.19.29-.15.31-.13.31-.09.33-.06.33v1.02l.07.34.1.33.14.32.17.32.1.15.11.15.23.27.25.24.27.22.29.18.31.16.32.12.32.09.34.06h.33l.35-.06zm11.94-1.92l.5-.19.35-.22.22-.17.1-.1.1-.1.18-.21.23-.34.2-.5.11-.52v-.52l-.09-.53-.2-.5-.21-.34-.18-.22-.09-.11-.1-.1-.22-.18-.35-.23-.51-.2-.53-.11h-.52l-.52.1-.49.19-.45.29-.2.19-.1.1-.18.21-.23.35-.21.49-.1.52v.53l.09.52.2.5.29.46.19.21.1.1.22.18.34.22.49.21.52.11h.53l.52-.09zm59.19 1.5h.34l.33-.06.33-.1.31-.13.3-.16.29-.18.27-.22.25-.25.23-.27.1-.15.1-.16.17-.31.13-.33.1-.33.07-.34v-1.01l-.07-.34-.1-.32-.12-.32-.16-.3-.19-.29-.22-.27-.24-.25-.28-.23-.15-.1-.23-.15-.48-.22-.49-.15-.51-.07h-.47l-.42.05-.41.11-.4.15-.38.19-.36.25-.32.29-.3.33-.13.19-.1.15-.17.32-.13.33-.1.33-.06.34v1.01l.06.34.1.32.13.32.16.3.18.29.22.27.25.25.28.23.15.1.15.1.31.17.33.13.33.1.34.07h.34l.34-.02zm-7.85-5.45l.49-.18.46-.29.31-.27.18-.21.08-.11.08-.12.14-.24.16-.38.12-.53v-.53l-.09-.52-.19-.49-.28-.46-.27-.3-.21-.18-.12-.09-.18-.12-.39-.19-.4-.13-.41-.06h-.69l-.31.08-.31.11-.29.15-.27.18-.25.21-.23.25-.1.14-.08.12-.14.24-.16.38-.11.52v.53l.09.52.19.5.28.45.28.31.21.18.11.09.12.08.24.14.38.15.52.12h.53l.51-.05zm-55.39-1.12l.38-.15.25-.13.12-.07.12-.08.21-.18.29-.29.3-.44.21-.49.11-.52v-.53l-.09-.52-.14-.39-.13-.25-.08-.12-.1-.15-.23-.27-.25-.23-.28-.19-.3-.16-.32-.12-.32-.08h-.7l-.38.05-.38.11-.37.17-.17.11-.12.08-.22.17-.29.3-.29.44-.21.49-.11.52v.53l.1.52.14.39.13.24.07.12.16.24.39.39.44.3.49.2.52.11h.53l.52-.12zm-11.93-.3h.34l.35-.07.34-.11.17-.07.16-.08.32-.17.28-.2.27-.23.23-.25.21-.27.19-.29.15-.3.13-.31.09-.33.06-.33v-1.03l-.07-.35-.11-.34-.07-.16-.11-.25-.28-.45-.34-.39-.38-.33-.43-.28-.46-.21-.48-.14-.5-.08h-.79l-.35.07-.35.11-.17.07-.17.07-.31.18-.29.2-.26.23-.24.25-.21.27-.18.28-.16.3-.12.32-.09.33-.07.33v1.03l.08.34.11.35.07.16.07.17.17.31.21.29.22.26.25.24.27.21.29.18.3.16.31.12.33.1.33.06h.34l.35.03zm79.42-1.07h.34l.34-.07.32-.1.31-.14.3-.16.28-.19.26-.22.24-.24.22-.27.2-.29.16-.32.07-.17.07-.17.1-.34.06-.35v-1.03l-.07-.33-.11-.32-.13-.31-.16-.3-.19-.28-.22-.27-.24-.24-.27-.22-.3-.19-.31-.17-.17-.07-.16-.06-.33-.1-.33-.06h-.76l-.51.08-.5.15-.47.22-.43.29-.38.34-.34.41-.28.47-.11.25-.06.17-.1.35-.06.34v1.03l.07.33.1.32.13.32.17.29.19.29.21.26.25.24.27.22.29.19.32.17.16.07.17.07.35.1.34.06h.35l.35-.05zm-8.87-3.15l.5-.19.45-.27.39-.37.25-.33.14-.24.06-.13.05-.13.09-.26.09-.4v-.54l-.09-.52-.19-.49-.25-.49-.36-.4-.33-.24-.24-.14-.13-.06-.14-.06-.28-.09-.28-.06h-.62l-.39.05-.37.11-.36.16-.33.21-.29.26-.27.3-.22.34-.09.19-.05.13-.09.26-.08.4v.54l.09.52.19.49.28.45.36.4.33.24.24.14.13.06.13.06.27.09.4.08h.5l.51-.07zm-62.05-1.85l.27-.08h.13l.13-.06.25-.12.34-.23.39-.37.31-.43.21-.48.13-.51v-.54l-.06-.41-.07-.26-.05-.14-.09-.2-.21-.37-.26-.33-.3-.28-.34-.23-.37-.18-.39-.12-.41-.06h-.45l-.49.09-.24.08-.13.06-.25.12-.34.23-.39.37-.31.43-.21.48-.12.52v.53l.05.41.08.27v.13l.06.13.12.25.23.34.37.39.43.31.48.21.52.13h.53l.45-.08zm-10.94-2.77h.35l.35-.11.32-.13.31-.17.28-.19.26-.22.24-.24.22-.26.19-.28.16-.3.13-.31.1-.33.07-.34V64.555l-.07-.31-.23-.58-.32-.52-.39-.45-.46-.38-.52-.29-.57-.21-.59-.1h-1.18l-.34.1-.32.14-.31.16-.28.19-.27.22-.24.24-.21.26-.19.29-.16.29-.13.32-.1.32-.08.34V65.995l.1.34.14.33.16.3.2.29.21.26.25.24.26.22.28.18.3.17.31.13.33.1.33.07h.7l.41.04zm84.2-.23h.35l.34-.07.32-.11.31-.13.3-.17.28-.19.26-.21.24-.24.22-.27.19-.29.16-.3.14-.33.1-.34v-1.41l-.07-.34-.1-.32-.14-.31-.16-.3-.19-.28-.22-.26-.24-.24-.26-.22-.29-.19-.31-.16-.32-.14-.34-.1h-1.16l-.6.11-.56.2-.52.3-.47.38-.39.46-.32.52-.17.43-.09.31V65.615l.07.33.11.33.13.31.17.3.19.28.21.26.24.24.27.21.28.2.31.16.33.13.34.1h.71l.35-.03zm-9.49-1.7l.52-.1.49-.2.45-.28.38-.37.31-.44.17-.37.09-.26v-.97l-.1-.52-.2-.5-.28-.44-.37-.38-.44-.31-.37-.17-.27-.09H186.88l-.46.08-.43.15-.4.23-.36.28-.31.34-.24.4-.19.44-.06.24V64.315l.1.53.19.49.29.45.37.38.43.31.38.17.26.09h1.01zm-65.73-1.53h.28l.27-.07.38-.16.45-.29.39-.36.3-.43.22-.49.12-.52V62.055l-.05-.24-.17-.47-.24-.41-.31-.37-.36-.3-.41-.24-.45-.16-.48-.09h-.85l-.26.07-.38.16-.46.29-.38.36-.31.43-.21.49-.13.52v.96l.07.27.16.38.28.45.37.39.43.3.48.22.53.12h.41l.31.02zm66.61-4.94l.4-.08.5-.2.44-.29.38-.36.31-.44.22-.49.09-.39V57.175l-.08-.4-.2-.5-.29-.45-.36-.38-.44-.3-.49-.22-.4-.1h-.75l-.53.11-.48.2-.44.29-.37.36-.3.43-.22.49-.11.53V57.935l.08.4.2.5.29.44.37.38.43.31.49.21.4.1h.56l.3-.01zm-67-1.35l.41-.08.49-.19.45-.29.38-.37.3-.43.22-.49.1-.4V55.825l-.08-.4-.2-.5-.29-.44-.37-.38-.43-.31-.49-.22-.4-.09h-.75l-.53.1-.49.21-.43.29-.38.36-.3.43-.21.48-.12.53v.7l.08.4.2.5.29.45.36.38.44.3.49.22.39.1H121.04l.3-.02zm-9.69 1.48h.35l.35-.07.33-.1.32-.14.3-.16.28-.19.26-.22.24-.24.21-.26.19-.28.17-.3.13-.32.1-.33.07-.34v-1.08l-.07-.34-.1-.34-.13-.31-.17-.3-.19-.28-.21-.26-.24-.24-.26-.22-.28-.19-.3-.16-.32-.14-.33-.1-.35-.07h-1.12l-.35.07-.33.1-.32.14-.3.16-.28.19-.26.22-.24.24-.21.26-.19.28-.17.3-.13.31-.1.34-.07.34v1.08l.07.34.1.33.13.32.17.3.19.28.21.26.24.24.26.22.28.19.3.16.32.14.33.1.35.07h.77zm86 0h.35l.35-.07.33-.1.32-.14.3-.16.28-.19.26-.22.24-.24.21-.26.2-.28.16-.3.13-.32.11-.33.07-.35V56.365l-.07-.34-.11-.34-.13-.31-.16-.3-.2-.28-.21-.27-.24-.23-.26-.22-.28-.19-.3-.16-.32-.14-.33-.1-.35-.07h-1.12l-.35.07-.33.1-.32.13-.3.17-.28.19-.26.21-.24.24-.21.26-.19.29-.17.3-.13.31-.1.34-.08.34v1.08l.07.34.11.33.13.32.17.3.19.28.21.26.24.24.26.22.28.19.3.16.32.14.33.1.35.07h.77zm-9.84-6.4h.28l.26-.07.38-.16.46-.29.38-.36.31-.43.21-.49.13-.52v-1.08l-.17-.46-.24-.41-.31-.37-.36-.3-.41-.24-.45-.16-.48-.09h-.94l-.27.07-.38.16-.45.29-.39.36-.3.43-.22.48-.12.52v.97l.07.27.16.38.29.45.36.39.43.3.49.22.52.12h.41l.35.02zm-65.88-1.51l.53-.1.49-.2.44-.28.39-.37.3-.44.18-.37.08-.26v-.97l-.1-.52-.19-.5-.29-.44-.36-.38-.44-.31-.37-.17-.27-.09H121.36l-.46.08-.43.15-.4.22-.36.29-.31.34-.25.4-.18.44-.06.24V50.075l.1.52.2.49.28.45.37.38.44.31.37.17.27.09h.99zm-9.53-.14h.35l.33-.07.33-.11.31-.13.3-.16.28-.19.26-.22.24-.24.21-.26.19-.29.17-.31.13-.32.1-.34v-1.42l-.07-.33-.11-.33-.13-.31-.17-.3-.19-.28-.21-.26-.24-.24-.27-.22-.28-.19-.31-.16-.32-.13-.35-.11h-1.15l-.6.11-.57.2-.52.3-.46.38-.4.46-.31.52-.17.43-.09.31V49.525l.07.34.1.32.14.31.16.3.19.28.22.26.24.24.26.22.29.19.31.16.32.13.34.11h.72l.36-.04zm84.76-.29h.36l.34-.1.32-.14.31-.16.28-.2.27-.21.24-.24.21-.27.19-.28.16-.3.13-.31.11-.33.07-.33v-1.23l-.07-.32-.23-.58-.31-.51-.4-.46-.46-.37-.52-.3-.56-.2-.6-.11H195.83l-.35.11-.32.13-.3.17-.29.19-.26.22-.24.24-.22.26-.19.28-.16.3-.13.31-.1.33-.07.34V49.395l.11.34.13.32.17.31.19.28.22.27.24.24.26.21.28.19.3.16.31.13.33.11.33.07h.7l.39.03zm-10.8-4.38l.26-.07h.14l.13-.05.25-.12.34-.23.39-.37.31-.43.21-.48.13-.52v-.53l-.06-.41-.08-.27v-.13l-.09-.2-.21-.37-.26-.33-.3-.28-.34-.23-.37-.18-.39-.12-.41-.06h-.45l-.49.09-.24.08-.13.05-.25.13-.35.22-.38.37-.31.44-.21.48-.13.51v.54l.06.41.07.26.05.14.06.13.12.25.22.34.38.39.43.3.48.22.51.12h.54l.37-.09zm-61.76-1.92l.5-.19.45-.27.39-.37.25-.33.14-.24.06-.13.05-.13.09-.26.08-.4v-.54l-.09-.52-.19-.5-.28-.45-.36-.39-.33-.24-.24-.14-.13-.06-.14-.06-.28-.1-.28-.06h-.62l-.39.05-.37.11-.36.16-.33.21-.3.26-.26.29-.22.35-.09.18-.05.13-.09.27-.09.4v.54l.09.52.19.49.28.45.36.4.33.24.24.14.13.06.13.06.26.09.41.08h.53l.53-.1zm-9.85-1.41h.34l.34-.08.32-.1.31-.13.3-.16.28-.19.26-.22.24-.25.22-.26.2-.3.16-.31.07-.17.07-.17.1-.35.06-.34v-1.03l-.08-.33-.1-.33-.13-.31-.16-.3-.2-.28-.21-.26-.25-.24-.27-.22-.29-.2-.32-.16-.16-.07-.17-.07-.32-.09-.33-.07h-.8l-.52.07-.49.15-.47.22-.43.29-.38.35-.34.41-.27.46-.11.26-.07.17-.1.34-.06.35v1.03l.07.33.1.32.13.31.16.3.19.28.22.26.25.25.27.22.29.19.32.17.16.07.17.06.35.1.34.06h.35l.39-.03zm79.37-1.06h.35l.34-.07.34-.11.17-.07.17-.08.31-.17.29-.2.26-.23.24-.25.21-.27.18-.28.16-.31.12-.31.09-.33.07-.33v-1.03l-.08-.34-.11-.35-.07-.16-.11-.25-.28-.45-.34-.39-.38-.34-.43-.27-.45-.21-.49-.14-.5-.08h-.78l-.36.07-.35.11-.17.07-.16.08-.32.17-.28.2-.27.23-.24.25-.21.27-.18.28-.15.3-.13.32-.09.33-.06.33v1.03l.07.34.11.34.07.17.07.17.18.31.2.29.23.26.25.24.26.21.29.18.3.16.32.12.32.1.34.06h.34l.34.03zm-10.89-2.05l.38-.15.25-.12.12-.08.12-.08.22-.17.28-.3.3-.44.21-.49.11-.52v-.53l-.1-.52-.14-.39-.13-.25-.07-.12-.11-.14-.22-.27-.26-.24-.28-.19-.3-.16-.31-.12-.33-.08h-.69l-.39.05-.38.11-.36.17-.18.11-.11.08-.22.17-.29.3-.3.44-.21.49-.11.52v.53l.09.52.14.39.13.25.08.12.08.11.17.22.3.29.44.3.49.2.51.11h.53l.54-.12zm-55.45-1.12l.49-.18.46-.28.31-.28.18-.21.08-.12.08-.11.14-.24.16-.38.12-.52v-.53l-.09-.52-.19-.5-.28-.46-.37-.4-.23-.17-.18-.12-.39-.19-.4-.13-.41-.06h-.69l-.31.07-.31.11-.29.15-.27.18-.25.22-.23.25-.1.14-.08.11-.14.24-.16.38-.12.52v.53l.09.52.19.5.28.45.27.31.21.18.12.09.11.08.25.13.37.16.53.12h.53l.52-.04zm51.39-4l.5-.19.35-.22.22-.17.1-.1.1-.1.18-.21.23-.35.21-.49.1-.52v-.53l-.09-.52-.2-.5-.21-.35-.17-.22-.1-.1-.1-.1-.22-.18-.35-.23-.5-.21-.53-.11h-.46l-.51.1-.49.2-.46.29-.2.19-.1.1-.18.21-.23.34-.2.5-.11.52v.52l.09.53.2.49.21.35.17.22.1.11.1.1.22.18.34.22.49.21.52.11h.53l.45-.09zm-47.4-.67l.5-.2.35-.21.22-.18.11-.09.1-.11.17-.21.23-.34.21-.49.11-.52v-.53l-.09-.52-.19-.5-.22-.35-.17-.22-.1-.1-.1-.11-.22-.18-.35-.23-.5-.2-.53-.11h-.53l-.51.1-.49.19-.45.29-.21.19-.1.1-.18.22-.22.34-.21.49-.11.52v.53l.1.52.19.5.22.35.17.22.1.1.1.1.21.18.34.22.5.21.52.11h.52l.51-.08zm-12.92.92h.33l.34-.06.32-.1.32-.13.3-.16.29-.18.27-.22.25-.25.23-.27.1-.15.1-.16.17-.31.13-.33.1-.33.06-.34v-1.02l-.06-.33-.1-.32-.13-.32-.16-.3-.18-.29-.22-.27-.25-.25-.27-.23-.15-.1-.23-.15-.48-.22-.5-.15-.5-.08h-.47l-.42.05-.41.1-.4.15-.38.2-.36.25-.33.29-.29.33-.13.19-.1.15-.17.32-.13.33-.1.33-.07.34v1.01l.06.33.1.33.13.31.15.31.19.28.22.27.25.26.27.22.15.11.16.1.31.16.33.14.33.1.34.06h.69zm71.18-.42h.34l.34-.07.33-.11.32-.13.31-.18.16-.1.14-.1.28-.23.24-.26.22-.27.18-.29.16-.31.12-.31.09-.33.06-.33v-1.02l-.07-.34-.1-.33-.14-.32-.17-.32-.1-.15-.13-.18-.29-.33-.33-.29-.35-.24-.38-.19-.4-.15-.4-.09H189.57l-.51.08-.51.15-.49.23-.23.16-.15.1-.27.23-.24.26-.22.27-.18.29-.16.3-.12.32-.09.33-.07.33v1.02l.07.33.11.34.13.32.18.31.1.16.1.14.23.28.26.24.27.22.29.18.31.16.31.12.33.09.33.06h.34l.34-.05zm-15.52-3.79l.5-.19.46-.28.3-.28.18-.21.09-.11.08-.12.14-.24.16-.38.11-.52v-.53l-.09-.52-.18-.5-.28-.45-.28-.31-.21-.18-.11-.08-.19-.13-.38-.19-.41-.12-.41-.07h-.69l-.31.07-.3.11-.29.15-.28.18-.25.22-.23.25-.1.14-.08.11-.14.25-.16.37-.11.53v.53l.08.52.19.49.28.46.28.3.21.19.11.08.12.08.24.14.38.16.52.11h.53l.52-.03zm-37.66-.77l.39-.15.25-.12.12-.08.11-.08.22-.17.29-.3.3-.44.2-.49.11-.51v-.53l-.09-.53-.14-.38-.13-.25-.08-.12-.1-.15-.23-.27-.26-.23-.28-.2-.29-.16-.32-.12-.32-.08h-.7l-.38.06-.38.11-.37.16-.17.11-.12.08-.22.18-.29.29-.3.44-.2.49-.11.52v.53l.09.53.15.38.13.25.07.12.08.12.17.21.3.29.44.3.49.21.52.1h.53l.52-.12zm32-2.46l.5-.19.45-.28.39-.37.25-.32.14-.24.06-.13v-.13l.09-.27.08-.4v-.54l-.09-.52-.18-.49-.28-.45-.37-.39-.32-.25-.25-.14-.12-.06-.14-.06-.28-.09-.29-.06H167.87l-.38.06-.38.11-.35.15-.33.21-.3.26-.26.3-.22.34-.09.19-.06.13-.09.26-.08.41v.53l.09.52.19.5.27.45.37.39.33.25.24.14.13.06.13.05.26.09.4.08h.54l.57-.1zm-44.41 1l.34-.06.33-.1.31-.13.31-.16.3-.2.27-.22.13-.13.13-.13.23-.28.19-.29.16-.31.13-.31.1-.33.06-.34v-1.01l-.06-.34-.1-.32-.04-.34-.16-.31-.19-.29-.23-.28-.13-.13-.13-.13-.27-.22-.3-.2-.31-.16-.31-.13-.33-.09-.34-.07h-1.01l-.33.07-.33.09-.32.13-.31.16-.29.2-.28.22-.13.13-.13.13-.22.28-.2.29-.16.31-.13.32-.09.32-.07.34v1.01l.07.34.09.32.13.32.16.31.2.29.22.28.13.13.13.13.28.22.29.2.31.16.32.13.33.1.33.06h.71l.21.02zm60.85 0l.34-.06.32-.1.32-.13.31-.16.29-.2.28-.22.13-.13.13-.13.22-.28.2-.29.16-.31.13-.32.09-.32.07-.34v-1.01l-.07-.33-.09-.33-.13-.32-.16-.31-.2-.29-.22-.28-.13-.13-.13-.13-.28-.22-.29-.2-.31-.16-.32-.13-.33-.09-.33-.07h-1.01l-.34.07-.33.09-.31.13-.31.16-.29.2-.28.22-.13.13-.13.13-.23.28-.19.29-.16.31-.13.32-.1.32-.06.34v1.01l.06.34.1.32.13.32.16.31.19.29.23.28.13.13.13.13.28.22.29.2.31.16.32.13.32.1.34.06h1.01zm-42.23-1.72l.27-.07h.13l.13-.05.25-.13.34-.22.39-.37.31-.44.21-.48.12-.51v-.54l.02-.47-.08-.27-.05-.13-.08-.2-.21-.37-.26-.33-.3-.28-.34-.23-.37-.18-.39-.12-.41-.06h-.45l-.49.09-.24.08-.13.06-.25.12-.35.23-.38.37-.31.43-.21.48-.13.52v.53l.06.41.07.27.05.13.05.13.13.25.22.34.37.39.44.31.48.21.51.12h.54l.34-.02zm18.67-1.36l.52-.1.49-.19.45-.29.38-.36.31-.44.17-.37.09-.27v-.9l-.1-.53-.2-.49-.28-.45-.37-.38-.44-.31-.37-.17-.26-.09H161.16l-.46.08-.43.16-.4.22-.36.28-.31.35-.25.39-.18.44-.06.24V24.495l.1.52.2.5.28.44.37.38.43.31.38.18.26.08h.56l.44-.06zm-12.66-.3h.28l.27-.08.38-.15.45-.29.39-.36.3-.43.22-.49.12-.52V23.395l-.05-.24-.17-.47-.24-.42-.31-.36-.36-.3-.41-.24-.45-.17-.48-.08h-.84l-.27.07-.38.16-.45.28-.39.37-.3.43-.22.48-.13.52v.83l.06.28.2.51.29.45.36.38.43.31.49.22.52.12h.41l.28.02zm6.33-.48l.4-.08.5-.19.44-.29.38-.37.31-.43.22-.49.09-.4V22.975l-.08-.4-.2-.5-.29-.44-.36-.38-.44-.31-.49-.22-.39-.09h-.76l-.53.1-.48.21-.44.29-.37.36-.3.43-.21.48-.12.53V23.735l.08.4.19.5.29.45.37.38.43.3.49.22.4.1h.7l.17-.02zm-25.17-1.14h.34l.34-.07.33-.11.32-.14.32-.17.15-.1.15-.1.27-.23.24-.26.22-.27.18-.29.16-.31.12-.31.09-.33.07-.33v-1.02l-.07-.34-.11-.33-.12-.29-.18-.32-.1-.15-.13-.18-.29-.33-.33-.28-.35-.24-.38-.2-.39-.14-.41-.1-.44-.06h-.47l-.51.08-.51.15-.49.24-.23.15-.15.1-.27.24-.24.25-.22.27-.18.29-.16.31-.12.31-.09.33-.07.33v1.02l.07.34.11.33.13.32.18.32.1.15.1.15.23.27.26.24.27.22.29.18.31.16.31.12.33.09.33.07h.34l.35-.03zm48.36-.29h.34l.33-.06.32-.1.32-.13.3-.16.29-.19.27-.21.25-.25.23-.28.1-.15.1-.15.17-.31.13-.33.1-.33.07-.34v-1.06l-.07-.33-.1-.33-.13-.31-.15-.3-.19-.29-.22-.27-.25-.25-.27-.23-.15-.1-.23-.15-.48-.23-.5-.14-.5-.08h-.86l-.41.1-.4.15-.38.2-.36.24-.32.3-.3.33-.13.19-.1.15-.17.32-.13.32-.1.34-.06.33v1.02l.06.33.1.33.13.31.16.31.18.28.22.28.25.25.27.22.15.11.16.1.31.17.33.13.33.1.34.06h.34l.31.09zm-41.06-3.71h.34l.35-.07.34-.11.17-.07.16-.07.31-.18.29-.2.27-.23.23-.25.21-.27.19-.28.15-.3.12-.32.1-.33.06-.33v-1.03l-.07-.34-.11-.34-.07-.17-.11-.25-.28-.44-.34-.4-.39-.33-.42-.28-.46-.21-.48-.14-.51-.07h-.78l-.35.07-.35.11-.17.07-.17.08-.31.17-.29.21-.26.22-.24.25-.21.27-.18.29-.16.3-.12.31-.1.33-.06.33v1.03l.07.35.11.34.07.17.08.16.17.31.2.29.23.27.25.23.27.21.28.19.31.15.31.13.33.09.33.06h.34l.35.02zm33.18-.45h.34l.33-.07.33-.1.31-.13.3-.16.28-.2.26-.21.24-.25.22-.27.2-.29.16-.32.07-.16.07-.18.1-.34.06-.34v-1.03l-.07-.34-.1-.32-.13-.31-.17-.3-.19-.28-.21-.26-.25-.25-.27-.22-.29-.19-.32-.17-.16-.07-.17-.06-.32-.09-.34-.07h-.76l-.52.08-.49.15-.47.22-.43.29-.39.35-.33.4-.28.47-.11.25-.06.17-.1.35-.07.34v1.03l.07.33.11.33.13.31.16.3.19.28.22.26.24.24.27.22.3.2.32.17.16.07.17.06.35.1.34.06h.35l.35-.05zm-24.08-2.32h.36l.34-.11.32-.13.31-.17.28-.19.27-.22.24-.24.21-.26.19-.28.16-.3.14-.31.1-.33.07-.33v-1.24l-.07-.31-.22-.58-.32-.52-.4-.45-.46-.38-.52-.29-.56-.2-.6-.11H145.3l-.34.1-.33.14-.3.16-.29.19-.26.22-.24.24-.22.27-.18.28-.16.29-.14.32-.1.32-.07.34V15.485l.11.34.13.33.17.3.19.29.22.26.24.24.26.22.28.19.3.16.31.13.33.1.34.07h.68l.4.04zm16.07 0h.35l.33-.07.33-.11.31-.13.3-.17.28-.19.26-.21.24-.24.21-.27.2-.28.16-.31.13-.33.11-.34v-1.41l-.07-.34-.11-.32-.13-.31-.16-.3-.19-.28-.22-.26-.24-.24-.27-.22-.28-.19-.31-.16-.33-.14-.34-.1h-1.15l-.6.11-.57.2-.52.3-.46.38-.4.45-.31.53-.18.43-.08.3v1.4l.07.33.1.33.14.31.16.3.19.28.22.26.24.24.26.21.29.19.31.17.32.13.35.1h.71l.35-.03zm-8.09-.76h.36l.34-.07.33-.1.32-.13.3-.17.28-.19.27-.21.23-.24.22-.26.19-.29.16-.3.14-.31.1-.33.07-.35v-1.06l-.06-.34-.1-.33-.13-.31-.16-.3-.18-.27-.21-.26-.23-.24-.26-.22-.27-.19-.29-.17-.31-.13-.32-.11-.33-.08-.35-.05h-.58l-.35.05-.33.08-.32.11-.31.13-.29.17-.27.19-.26.22-.23.24-.21.26-.18.27-.16.3-.13.31-.09.33-.07.34v1.06l.07.35.1.33.14.31.16.3.19.29.22.26.24.24.26.21.28.19.3.17.32.13.33.1.34.07h.72z" fill="url(#a)" style="mix-blend-mode:multiply" transform="translate(.97 .585)"/><path d="M154.61 103.415h.36l.34-.08.33-.1.32-.13.3-.17.28-.19.26-.21.24-.24.22-.26.19-.28.16-.3.14-.32.1-.33.07-.35V99.385l-.07-.35-.1-.33-.14-.32-.16-.3-.19-.28-.21-.26-.24-.24-.27-.21-.28-.2-.3-.16-.31-.13-.34-.11-.34-.07h-1.1l-.34.07-.33.11-.32.13-.3.16-.28.19-.26.22-.24.24-.22.26-.19.28-.16.3-.14.32-.1.33-.07.35V100.455l.07.35.1.33.14.32.16.3.19.28.22.26.24.24.26.21.28.19.3.17.32.13.33.1.34.08h.74zm-8-.76h.34l.34-.07.32-.11.31-.13.3-.16.28-.19.26-.22.24-.24.22-.27.19-.28.16-.31.14-.32.1-.35V98.575l-.07-.33-.1-.33-.14-.31-.16-.3-.19-.28-.22-.26-.24-.24-.26-.22-.29-.19-.31-.16-.32-.13-.35-.11h-1.15l-.6.1-.56.21-.52.29-.47.38-.39.46-.32.52-.17.43-.09.31V99.805l.07.34.11.32.13.31.17.3.19.28.21.26.24.24.27.22.28.19.31.16.33.13.34.11h.71l.36-.01zm16.61-.08h.36l.34-.1.33-.14.3-.16.29-.2.26-.21.24-.25.22-.26.19-.28.16-.3.13-.31.1-.33.07-.33v-1.32l-.07-.31-.23-.58-.32-.52-.39-.45-.46-.37-.52-.3-.57-.2-.59-.11h-1.18l-.34.1-.32.14-.31.17-.28.19-.27.22-.24.24-.21.26-.19.28-.16.3-.13.31-.11.33-.07.33v1.41l.1.35.14.32.16.31.2.28.21.27.24.23.27.22.28.19.3.16.31.13.33.1.33.07h.7l.4.12zm-24.61-2.26h.34l.33-.08.32-.1.31-.13.3-.16.28-.19.27-.22.24-.25.22-.26.19-.3.17-.32.07-.16.06-.17.1-.35.07-.34v-1.03l-.07-.34-.11-.32-.13-.31-.16-.3-.19-.28-.22-.26-.24-.25-.27-.22-.3-.19-.31-.17-.17-.07-.16-.06-.33-.09-.33-.07h-.76l-.51.08-.5.15-.46.22-.43.29-.39.35-.34.4-.27.47-.11.25-.07.17-.1.35-.06.34v1.03l.07.33.1.33.14.31.16.3.19.28.22.26.24.24.27.22.29.2.32.16.17.07.17.07.34.1.35.06h.34l.35-.04zm33.13-.45h.34l.35-.07.34-.11.16-.07.17-.07.31-.18.29-.2.26-.22.24-.25.21-.27.18-.29.16-.3.12-.31.1-.33.06-.33v-1.03l-.07-.35-.11-.34-.07-.17-.11-.24-.28-.45-.34-.39-.39-.34-.42-.27-.46-.21-.48-.15-.51-.07h-.78l-.35.08-.35.11-.17.07-.17.07-.31.18-.29.2-.26.22-.24.25-.21.27-.19.29-.15.3-.12.32-.1.32-.06.34v1.02l.07.35.11.34.07.17.08.16.17.32.2.29.23.26.25.24.27.21.28.18.31.15.31.13.33.09.33.06h.34l.35.02zm-41.12-3.75h.33l.34-.07.32-.1.32-.12.3-.16.29-.19.27-.22.25-.25.23-.27.1-.15.1-.15.17-.32.13-.32.1-.34.07-.34v-1.01l-.06-.34-.1-.32-.13-.32-.16-.3-.18-.29-.22-.27-.25-.25-.27-.23-.15-.1-.23-.15-.48-.22-.5-.15-.5-.07h-.48l-.42.06-.41.1-.4.15-.38.19-.36.25-.33.29-.29.34-.13.18-.1.16-.17.31-.13.33-.1.33-.07.34v1.02l.06.33.1.32.13.32.15.3.19.29.22.27.25.25.27.23.15.1.16.1.31.17.33.13.33.1.34.07h.34l.35-.01zm48.41-.29h.34l.34-.07.33-.1.32-.14.32-.17.15-.1.15-.1.27-.24.24-.25.22-.27.18-.29.16-.31.12-.31.09-.33.07-.33v-1.02l-.07-.34-.11-.33-.13-.32-.18-.32-.1-.15-.13-.18-.29-.33-.33-.29-.35-.24-.38-.19-.39-.15-.41-.09-.42-.05h-.47l-.51.07-.51.16-.48.23-.23.16-.15.1-.28.23-.24.26-.22.27-.18.29-.15.3-.13.32-.09.33-.06.33v1.02l.07.33.1.33.14.33.17.31.1.15.11.15.23.27.25.25.27.21.29.19.31.15.31.13.33.09.33.06h.34l.34-.01zm-24.92-2.72l.4-.08.5-.2.45-.29.38-.37.3-.43.22-.49.1-.4V90.015l-.09-.41-.19-.49-.29-.45-.37-.38-.43-.3-.49-.22-.4-.1h-.75l-.53.11-.49.2-.43.29-.37.36-.3.43-.22.49-.12.53v.7l.08.4.2.5.29.44.36.38.44.31.48.21.4.1h.56l.31-.01zm6.23-.46h.28l.27-.07.38-.16.45-.29.39-.36.3-.43.22-.49.13-.52V89.255l-.17-.47-.24-.41-.31-.37-.36-.3-.41-.24-.45-.16-.48-.09h-.84l-.27.07-.38.16-.46.29-.38.36-.3.43-.22.49-.12.52v.97l.08.26.15.38.29.46.36.38.43.3.48.22.53.13h.41l.24.01zm-12.8-.28l.52-.1.49-.2.45-.28.38-.37.31-.44.17-.37.09-.27v-.96l-.1-.53-.19-.49-.29-.44-.37-.39-.43-.31-.38-.17-.26-.08H146.97l-.46.08-.44.15-.4.22-.36.29-.3.34-.25.4-.18.44-.06.24V89.945l.1.53.2.49.28.45.37.38.43.31.38.17.26.08h.55l.45.01zm19.33-1.46l.27-.08h.13l.13-.06.25-.12.35-.23.38-.37.31-.43.22-.48.12-.52v-.53l-.06-.41-.07-.27-.05-.13-.08-.2-.22-.38-.26-.32-.3-.28-.34-.23-.37-.18-.39-.12-.41-.06h-.45l-.49.09-.24.08-.13.05-.25.13-.34.22-.39.37-.3.44-.22.48-.12.51v.54l.06.4.07.27v.14l.06.13.12.25.23.34.37.39.43.31.48.21.52.12h.53l.45-.07zm-25.49-.82l.49-.19.45-.28.4-.36.24-.33.14-.24.06-.13.06-.13.09-.27.08-.4v-.53l-.09-.52-.19-.5-.27-.45-.37-.39-.33-.25-.24-.14-.13-.06-.13-.06-.28-.09-.29-.06h-1l-.38.11-.35.16-.33.21-.3.25-.26.3-.22.34-.09.19-.06.13-.09.27-.08.4v.53l.09.53.18.49.28.45.37.39.33.25.24.14.13.06.13.06.26.08.4.09h.54l.52-.05zm-17.21.73h.34l.33-.07.33-.09.32-.13.3-.17.3-.19.27-.22.13-.13.13-.13.23-.28.19-.29.16-.31.13-.32.1-.33.06-.33v-1.01l-.06-.34-.1-.33-.13-.31-.16-.31-.19-.3-.23-.27-.13-.13-.13-.13-.28-.23-.29-.19-.31-.16-.32-.13-.32-.1-.34-.06h-1.01l-.33.06-.33.1-.32.13-.31.16-.29.19-.28.23-.13.13-.13.13-.22.27-.2.3-.16.31-.13.31-.09.33-.07.34v1.01l.07.33.09.33.13.32.16.31.2.29.22.28.13.13.13.13.28.22.29.2.31.16.32.13.33.09.33.07h.68zm61.18 0l.34-.07.32-.09.32-.13.31-.17.29-.19.28-.22.13-.13.13-.13.22-.28.2-.29.16-.31.13-.32.09-.33.07-.33v-1.01l-.07-.34-.09-.33-.13-.31-.16-.31-.2-.3-.22-.27-.13-.13-.13-.13-.28-.23-.29-.19-.31-.16-.32-.13-.33-.1-.33-.06h-1.01l-.34.06-.32.1-.32.13-.31.16-.29.19-.28.23-.13.13-.13.13-.23.27-.19.3-.16.31-.13.31-.1.33-.06.33v1.02l.06.33.1.33.13.32.16.31.19.29.23.28.13.13.13.13.28.22.29.19.31.17.32.13.32.09.34.07h1.01zm-11.9-3.18l.39-.14.24-.13.13-.07.11-.08.22-.18.29-.29.3-.45.2-.48.11-.52v-.53l-.09-.53-.15-.38-.12-.25-.08-.12-.1-.15-.23-.27-.26-.23-.28-.2-.29-.15-.32-.12-.32-.09h-.7l-.38.06-.38.11-.37.17-.17.11-.12.08-.22.17-.29.29-.3.45-.2.49-.11.51v.53l.09.53.15.38.12.25.08.12.08.12.17.22.3.28.44.3.49.21.51.11h.53l.53-.13zm-37.72-.75l.5-.19.46-.28.3-.27.18-.21.09-.12.08-.12.13-.24.16-.38.12-.52v-.53l-.09-.52-.18-.49-.28-.46-.28-.3-.21-.19-.11-.08-.18-.13-.39-.19-.4-.12-.41-.07h-.69l-.31.07-.31.11-.29.15-.27.18-.26.22-.22.25-.11.14-.08.12-.13.24-.16.38-.12.52v.53l.09.52.18.49.28.46.28.3.21.19.11.08.12.08.24.14.38.16.52.12h.55l.5-.04zm42.8-3.3l.5-.2.35-.21.21-.18.11-.09.1-.1.18-.22.22-.34.21-.49.11-.52v-.53l-.1-.52-.19-.5-.22-.35-.17-.22-.1-.1-.1-.1-.22-.19-.35-.22-.5-.21-.53-.11h-.53l-.51.1-.49.19-.45.3-.21.18-.1.1-.17.22-.23.34-.21.49-.11.52v.53l.09.52.19.5.22.35.17.22.1.1.1.1.21.18.35.23.49.21.52.1h.53l.53-.08zm-59.3 1.21h.34l.34-.06.33-.11.32-.14.32-.17.15-.1.15-.1.27-.24.24-.25.22-.27.18-.29.16-.31.12-.31.09-.33.06-.33v-1.02l-.07-.34-.11-.33-.13-.32-.18-.32-.1-.15-.13-.18-.29-.33-.33-.28-.35-.24-.38-.2-.39-.14-.41-.1H118.76l-.51.08-.51.15-.48.24-.23.15-.15.1-.28.24-.24.25-.21.27-.19.29-.15.31-.13.31-.09.33-.06.33v1.02l.07.34.1.33.14.32.17.32.1.15.11.15.23.27.25.24.27.22.29.18.31.16.32.12.32.09.34.06h.33l.35-.06zm11.94-1.92l.5-.19.35-.22.22-.17.1-.1.1-.1.18-.21.23-.34.2-.5.11-.52v-.52l-.09-.53-.2-.5-.21-.34-.18-.22-.09-.11-.1-.1-.22-.18-.35-.23-.51-.2-.53-.11h-.52l-.52.1-.49.19-.45.29-.2.19-.1.1-.18.21-.23.35-.21.49-.1.52v.53l.09.52.2.5.29.46.19.21.1.1.22.18.34.22.49.21.52.11h.53l.52-.09zm59.19 1.5h.34l.33-.06.33-.1.31-.13.3-.16.29-.18.27-.22.25-.25.23-.27.1-.15.1-.16.17-.31.13-.33.1-.33.07-.34v-1.01l-.07-.34-.1-.32-.12-.32-.16-.3-.19-.29-.22-.27-.24-.25-.28-.23-.15-.1-.23-.15-.48-.22-.49-.15-.51-.07h-.47l-.42.05-.41.11-.4.15-.38.19-.36.25-.32.29-.3.33-.13.19-.1.15-.17.32-.13.33-.1.33-.06.34v1.01l.06.34.1.32.13.32.16.3.18.29.22.27.25.25.28.23.15.1.15.1.31.17.33.13.33.1.34.07h.34l.34-.02zm-7.85-5.45l.49-.18.46-.29.31-.27.18-.21.08-.11.08-.12.14-.24.16-.38.12-.53v-.53l-.09-.52-.19-.49-.28-.46-.27-.3-.21-.18-.12-.09-.18-.12-.39-.19-.4-.13-.41-.06h-.69l-.31.08-.31.11-.29.15-.27.18-.25.21-.23.25-.1.14-.08.12-.14.24-.16.38-.11.52v.53l.09.52.19.5.28.45.28.31.21.18.11.09.12.08.24.14.38.15.52.12h.53l.51-.05zm-55.39-1.12l.38-.15.25-.13.12-.07.12-.08.21-.18.29-.29.3-.44.21-.49.11-.52v-.53l-.09-.52-.14-.39-.13-.25-.08-.12-.1-.15-.23-.27-.25-.23-.28-.19-.3-.16-.32-.12-.32-.08h-.7l-.38.05-.38.11-.37.17-.17.11-.12.08-.22.17-.29.3-.29.44-.21.49-.11.52v.53l.1.52.14.39.13.24.07.12.16.24.39.39.44.3.49.2.52.11h.53l.52-.12zm-11.93-.3h.34l.35-.07.34-.11.17-.07.16-.08.32-.17.28-.2.27-.23.23-.25.21-.27.19-.29.15-.3.13-.31.09-.33.06-.33v-1.03l-.07-.35-.11-.34-.07-.16-.11-.25-.28-.45-.34-.39-.38-.33-.43-.28-.46-.21-.48-.14-.5-.08h-.79l-.35.07-.35.11-.17.07-.17.07-.31.18-.29.2-.26.23-.24.25-.21.27-.18.28-.16.3-.12.32-.09.33-.07.33v1.03l.08.34.11.35.07.16.07.17.17.31.21.29.22.26.25.24.27.21.29.18.3.16.31.12.33.1.33.06h.34l.35.03zm79.42-1.07h.34l.34-.07.32-.1.31-.14.3-.16.28-.19.26-.22.24-.24.22-.27.2-.29.16-.32.07-.17.07-.17.1-.34.06-.35v-1.03l-.07-.33-.11-.32-.13-.31-.16-.3-.19-.28-.22-.27-.24-.24-.27-.22-.3-.19-.31-.17-.17-.07-.16-.06-.33-.1-.33-.06h-.76l-.51.08-.5.15-.47.22-.43.29-.38.34-.34.41-.28.47-.11.25-.06.17-.1.35-.06.34v1.03l.07.33.1.32.13.32.17.29.19.29.21.26.25.24.27.22.29.19.32.17.16.07.17.07.35.1.34.06h.35l.35-.05zm-8.87-3.15l.5-.19.45-.27.39-.37.25-.33.14-.24.06-.13.05-.13.09-.26.09-.4v-.54l-.09-.52-.19-.49-.25-.49-.36-.4-.33-.24-.24-.14-.13-.06-.14-.06-.28-.09-.28-.06h-.62l-.39.05-.37.11-.36.16-.33.21-.29.26-.27.3-.22.34-.09.19-.05.13-.09.26-.08.4v.54l.09.52.19.49.28.45.36.4.33.24.24.14.13.06.13.06.27.09.4.08h.5l.51-.07zm-62.05-1.85l.27-.08h.13l.13-.06.25-.12.34-.23.39-.37.31-.43.21-.48.13-.51v-.54l-.06-.41-.07-.26-.05-.14-.09-.2-.21-.37-.26-.33-.3-.28-.34-.23-.37-.18-.39-.12-.41-.06h-.45l-.49.09-.24.08-.13.06-.25.12-.34.23-.39.37-.31.43-.21.48-.12.52v.53l.05.41.08.27v.13l.06.13.12.25.23.34.37.39.43.31.48.21.52.13h.53l.45-.08zm-10.94-2.77h.35l.35-.11.32-.13.31-.17.28-.19.26-.22.24-.24.22-.26.19-.28.16-.3.13-.31.1-.33.07-.34V64.555l-.07-.31-.23-.58-.32-.52-.39-.45-.46-.38-.52-.29-.57-.21-.59-.1h-1.18l-.34.1-.32.14-.31.16-.28.19-.27.22-.24.24-.21.26-.19.29-.16.29-.13.32-.1.32-.08.34V65.995l.1.34.14.33.16.3.2.29.21.26.25.24.26.22.28.18.3.17.31.13.33.1.33.07h.7l.41.04zm84.2-.23h.35l.34-.07.32-.11.31-.13.3-.17.28-.19.26-.21.24-.24.22-.27.19-.29.16-.3.14-.33.1-.34v-1.41l-.07-.34-.1-.32-.14-.31-.16-.3-.19-.28-.22-.26-.24-.24-.26-.22-.29-.19-.31-.16-.32-.14-.34-.1h-1.16l-.6.11-.56.2-.52.3-.47.38-.39.46-.32.52-.17.43-.09.31V65.615l.07.33.11.33.13.31.17.3.19.28.21.26.24.24.27.21.28.2.31.16.33.13.34.1h.71l.35-.03zm-9.49-1.7l.52-.1.49-.2.45-.28.38-.37.31-.44.17-.37.09-.26v-.97l-.1-.52-.2-.5-.28-.44-.37-.38-.44-.31-.37-.17-.27-.09H186.88l-.46.08-.43.15-.4.23-.36.28-.31.34-.24.4-.19.44-.06.24V64.315l.1.53.19.49.29.45.37.38.43.31.38.17.26.09h1.01zm-65.73-1.53h.28l.27-.07.38-.16.45-.29.39-.36.3-.43.22-.49.12-.52V62.055l-.05-.24-.17-.47-.24-.41-.31-.37-.36-.3-.41-.24-.45-.16-.48-.09h-.85l-.26.07-.38.16-.46.29-.38.36-.31.43-.21.49-.13.52v.96l.07.27.16.38.28.45.37.39.43.3.48.22.53.12h.41l.31.02zm66.61-4.94l.4-.08.5-.2.44-.29.38-.36.31-.44.22-.49.09-.39V57.175l-.08-.4-.2-.5-.29-.45-.36-.38-.44-.3-.49-.22-.4-.1h-.75l-.53.11-.48.2-.44.29-.37.36-.3.43-.22.49-.11.53V57.935l.08.4.2.5.29.44.37.38.43.31.49.21.4.1h.56l.3-.01zm-67-1.35l.41-.08.49-.19.45-.29.38-.37.3-.43.22-.49.1-.4V55.825l-.08-.4-.2-.5-.29-.44-.37-.38-.43-.31-.49-.22-.4-.09h-.75l-.53.1-.49.21-.43.29-.38.36-.3.43-.21.48-.12.53v.7l.08.4.2.5.29.45.36.38.44.3.49.22.39.1H121.04l.3-.02zm-9.69 1.48h.35l.35-.07.33-.1.32-.14.3-.16.28-.19.26-.22.24-.24.21-.26.19-.28.17-.3.13-.32.1-.33.07-.34v-1.08l-.07-.34-.1-.34-.13-.31-.17-.3-.19-.28-.21-.26-.24-.24-.26-.22-.28-.19-.3-.16-.32-.14-.33-.1-.35-.07h-1.12l-.35.07-.33.1-.32.14-.3.16-.28.19-.26.22-.24.24-.21.26-.19.28-.17.3-.13.31-.1.34-.07.34v1.08l.07.34.1.33.13.32.17.3.19.28.21.26.24.24.26.22.28.19.3.16.32.14.33.1.35.07h.77zm86 0h.35l.35-.07.33-.1.32-.14.3-.16.28-.19.26-.22.24-.24.21-.26.2-.28.16-.3.13-.32.11-.33.07-.35V56.365l-.07-.34-.11-.34-.13-.31-.16-.3-.2-.28-.21-.27-.24-.23-.26-.22-.28-.19-.3-.16-.32-.14-.33-.1-.35-.07h-1.12l-.35.07-.33.1-.32.13-.3.17-.28.19-.26.21-.24.24-.21.26-.19.29-.17.3-.13.31-.1.34-.08.34v1.08l.07.34.11.33.13.32.17.3.19.28.21.26.24.24.26.22.28.19.3.16.32.14.33.1.35.07h.77zm-9.84-6.4h.28l.26-.07.38-.16.46-.29.38-.36.31-.43.21-.49.13-.52v-1.08l-.17-.46-.24-.41-.31-.37-.36-.3-.41-.24-.45-.16-.48-.09h-.94l-.27.07-.38.16-.45.29-.39.36-.3.43-.22.48-.12.52v.97l.07.27.16.38.29.45.36.39.43.3.49.22.52.12h.41l.35.02zm-65.88-1.51l.53-.1.49-.2.44-.28.39-.37.3-.44.18-.37.08-.26v-.97l-.1-.52-.19-.5-.29-.44-.36-.38-.44-.31-.37-.17-.27-.09H121.36l-.46.08-.43.15-.4.22-.36.29-.31.34-.25.4-.18.44-.06.24V50.075l.1.52.2.49.28.45.37.38.44.31.37.17.27.09h.99zm-9.53-.14h.35l.33-.07.33-.11.31-.13.3-.16.28-.19.26-.22.24-.24.21-.26.19-.29.17-.31.13-.32.1-.34v-1.42l-.07-.33-.11-.33-.13-.31-.17-.3-.19-.28-.21-.26-.24-.24-.27-.22-.28-.19-.31-.16-.32-.13-.35-.11h-1.15l-.6.11-.57.2-.52.3-.46.38-.4.46-.31.52-.17.43-.09.31V49.525l.07.34.1.32.14.31.16.3.19.28.22.26.24.24.26.22.29.19.31.16.32.13.34.11h.72l.36-.04zm84.76-.29h.36l.34-.1.32-.14.31-.16.28-.2.27-.21.24-.24.21-.27.19-.28.16-.3.13-.31.11-.33.07-.33v-1.23l-.07-.32-.23-.58-.31-.51-.4-.46-.46-.37-.52-.3-.56-.2-.6-.11H195.83l-.35.11-.32.13-.3.17-.29.19-.26.22-.24.24-.22.26-.19.28-.16.3-.13.31-.1.33-.07.34V49.395l.11.34.13.32.17.31.19.28.22.27.24.24.26.21.28.19.3.16.31.13.33.11.33.07h.7l.39.03zm-10.8-4.38l.26-.07h.14l.13-.05.25-.12.34-.23.39-.37.31-.43.21-.48.13-.52v-.53l-.06-.41-.08-.27v-.13l-.09-.2-.21-.37-.26-.33-.3-.28-.34-.23-.37-.18-.39-.12-.41-.06h-.45l-.49.09-.24.08-.13.05-.25.13-.35.22-.38.37-.31.44-.21.48-.13.51v.54l.06.41.07.26.05.14.06.13.12.25.22.34.38.39.43.3.48.22.51.12h.54l.37-.09zm-61.76-1.92l.5-.19.45-.27.39-.37.25-.33.14-.24.06-.13.05-.13.09-.26.08-.4v-.54l-.09-.52-.19-.5-.28-.45-.36-.39-.33-.24-.24-.14-.13-.06-.14-.06-.28-.1-.28-.06h-.62l-.39.05-.37.11-.36.16-.33.21-.3.26-.26.29-.22.35-.09.18-.05.13-.09.27-.09.4v.54l.09.52.19.49.28.45.36.4.33.24.24.14.13.06.13.06.26.09.41.08h.53l.53-.1zm-9.85-1.41h.34l.34-.08.32-.1.31-.13.3-.16.28-.19.26-.22.24-.25.22-.26.2-.3.16-.31.07-.17.07-.17.1-.35.06-.34v-1.03l-.08-.33-.1-.33-.13-.31-.16-.3-.2-.28-.21-.26-.25-.24-.27-.22-.29-.2-.32-.16-.16-.07-.17-.07-.32-.09-.33-.07h-.8l-.52.07-.49.15-.47.22-.43.29-.38.35-.34.41-.27.46-.11.26-.07.17-.1.34-.06.35v1.03l.07.33.1.32.13.31.16.3.19.28.22.26.25.25.27.22.29.19.32.17.16.07.17.06.35.1.34.06h.35l.39-.03zm79.37-1.06h.35l.34-.07.34-.11.17-.07.17-.08.31-.17.29-.2.26-.23.24-.25.21-.27.18-.28.16-.31.12-.31.09-.33.07-.33v-1.03l-.08-.34-.11-.35-.07-.16-.11-.25-.28-.45-.34-.39-.38-.34-.43-.27-.45-.21-.49-.14-.5-.08h-.78l-.36.07-.35.11-.17.07-.16.08-.32.17-.28.2-.27.23-.24.25-.21.27-.18.28-.15.3-.13.32-.09.33-.06.33v1.03l.07.34.11.34.07.17.07.17.18.31.2.29.23.26.25.24.26.21.29.18.3.16.32.12.32.1.34.06h.34l.34.03zm-10.89-2.05l.38-.15.25-.12.12-.08.12-.08.22-.17.28-.3.3-.44.21-.49.11-.52v-.53l-.1-.52-.14-.39-.13-.25-.07-.12-.11-.14-.22-.27-.26-.24-.28-.19-.3-.16-.31-.12-.33-.08h-.69l-.39.05-.38.11-.36.17-.18.11-.11.08-.22.17-.29.3-.3.44-.21.49-.11.52v.53l.09.52.14.39.13.25.08.12.08.11.17.22.3.29.44.3.49.2.51.11h.53l.54-.12zm-55.45-1.12l.49-.18.46-.28.31-.28.18-.21.08-.12.08-.11.14-.24.16-.38.12-.52v-.53l-.09-.52-.19-.5-.28-.46-.37-.4-.23-.17-.18-.12-.39-.19-.4-.13-.41-.06h-.69l-.31.07-.31.11-.29.15-.27.18-.25.22-.23.25-.1.14-.08.11-.14.24-.16.38-.12.52v.53l.09.52.19.5.28.45.27.31.21.18.12.09.11.08.25.13.37.16.53.12h.53l.52-.04zm51.39-4l.5-.19.35-.22.22-.17.1-.1.1-.1.18-.21.23-.35.21-.49.1-.52v-.53l-.09-.52-.2-.5-.21-.35-.17-.22-.1-.1-.1-.1-.22-.18-.35-.23-.5-.21-.53-.11h-.46l-.51.1-.49.2-.46.29-.2.19-.1.1-.18.21-.23.34-.2.5-.11.52v.52l.09.53.2.49.21.35.17.22.1.11.1.1.22.18.34.22.49.21.52.11h.53l.45-.09zm-47.4-.67l.5-.2.35-.21.22-.18.11-.09.1-.11.17-.21.23-.34.21-.49.11-.52v-.53l-.09-.52-.19-.5-.22-.35-.17-.22-.1-.1-.1-.11-.22-.18-.35-.23-.5-.2-.53-.11h-.53l-.51.1-.49.19-.45.29-.21.19-.1.1-.18.22-.22.34-.21.49-.11.52v.53l.1.52.19.5.22.35.17.22.1.1.1.1.21.18.34.22.5.21.52.11h.52l.51-.08zm-12.92.92h.33l.34-.06.32-.1.32-.13.3-.16.29-.18.27-.22.25-.25.23-.27.1-.15.1-.16.17-.31.13-.33.1-.33.06-.34v-1.02l-.06-.33-.1-.32-.13-.32-.16-.3-.18-.29-.22-.27-.25-.25-.27-.23-.15-.1-.23-.15-.48-.22-.5-.15-.5-.08h-.47l-.42.05-.41.1-.4.15-.38.2-.36.25-.33.29-.29.33-.13.19-.1.15-.17.32-.13.33-.1.33-.07.34v1.01l.06.33.1.33.13.31.15.31.19.28.22.27.25.26.27.22.15.11.16.1.31.16.33.14.33.1.34.06h.69zm71.18-.42h.34l.34-.07.33-.11.32-.13.31-.18.16-.1.14-.1.28-.23.24-.26.22-.27.18-.29.16-.31.12-.31.09-.33.06-.33v-1.02l-.07-.34-.1-.33-.14-.32-.17-.32-.1-.15-.13-.18-.29-.33-.33-.29-.35-.24-.38-.19-.4-.15-.4-.09H189.57l-.51.08-.51.15-.49.23-.23.16-.15.1-.27.23-.24.26-.22.27-.18.29-.16.3-.12.32-.09.33-.07.33v1.02l.07.33.11.34.13.32.18.31.1.16.1.14.23.28.26.24.27.22.29.18.31.16.31.12.33.09.33.06h.34l.34-.05zm-15.52-3.79l.5-.19.46-.28.3-.28.18-.21.09-.11.08-.12.14-.24.16-.38.11-.52v-.53l-.09-.52-.18-.5-.28-.45-.28-.31-.21-.18-.11-.08-.19-.13-.38-.19-.41-.12-.41-.07h-.69l-.31.07-.3.11-.29.15-.28.18-.25.22-.23.25-.1.14-.08.11-.14.25-.16.37-.11.53v.53l.08.52.19.49.28.46.28.3.21.19.11.08.12.08.24.14.38.16.52.11h.53l.52-.03zm-37.66-.77l.39-.15.25-.12.12-.08.11-.08.22-.17.29-.3.3-.44.2-.49.11-.51v-.53l-.09-.53-.14-.38-.13-.25-.08-.12-.1-.15-.23-.27-.26-.23-.28-.2-.29-.16-.32-.12-.32-.08h-.7l-.38.06-.38.11-.37.16-.17.11-.12.08-.22.18-.29.29-.3.44-.2.49-.11.52v.53l.09.53.15.38.13.25.07.12.08.12.17.21.3.29.44.3.49.21.52.1h.53l.52-.12zm32-2.46l.5-.19.45-.28.39-.37.25-.32.14-.24.06-.13v-.13l.09-.27.08-.4v-.54l-.09-.52-.18-.49-.28-.45-.37-.39-.32-.25-.25-.14-.12-.06-.14-.06-.28-.09-.29-.06H167.87l-.38.06-.38.11-.35.15-.33.21-.3.26-.26.3-.22.34-.09.19-.06.13-.09.26-.08.41v.53l.09.52.19.5.27.45.37.39.33.25.24.14.13.06.13.05.26.09.4.08h.54l.57-.1zm-44.41 1l.34-.06.33-.1.31-.13.31-.16.3-.2.27-.22.13-.13.13-.13.23-.28.19-.29.16-.31.13-.31.1-.33.06-.34v-1.01l-.06-.34-.1-.32-.04-.34-.16-.31-.19-.29-.23-.28-.13-.13-.13-.13-.27-.22-.3-.2-.31-.16-.31-.13-.33-.09-.34-.07h-1.01l-.33.07-.33.09-.32.13-.31.16-.29.2-.28.22-.13.13-.13.13-.22.28-.2.29-.16.31-.13.32-.09.32-.07.34v1.01l.07.34.09.32.13.32.16.31.2.29.22.28.13.13.13.13.28.22.29.2.31.16.32.13.33.1.33.06h.71l.21.02zm60.85 0l.34-.06.32-.1.32-.13.31-.16.29-.2.28-.22.13-.13.13-.13.22-.28.2-.29.16-.31.13-.32.09-.32.07-.34v-1.01l-.07-.33-.09-.33-.13-.32-.16-.31-.2-.29-.22-.28-.13-.13-.13-.13-.28-.22-.29-.2-.31-.16-.32-.13-.33-.09-.33-.07h-1.01l-.34.07-.33.09-.31.13-.31.16-.29.2-.28.22-.13.13-.13.13-.23.28-.19.29-.16.31-.13.32-.1.32-.06.34v1.01l.06.34.1.32.13.32.16.31.19.29.23.28.13.13.13.13.28.22.29.2.31.16.32.13.32.1.34.06h1.01zm-42.23-1.72l.27-.07h.13l.13-.05.25-.13.34-.22.39-.37.31-.44.21-.48.12-.51v-.54l.02-.47-.08-.27-.05-.13-.08-.2-.21-.37-.26-.33-.3-.28-.34-.23-.37-.18-.39-.12-.41-.06h-.45l-.49.09-.24.08-.13.06-.25.12-.35.23-.38.37-.31.43-.21.48-.13.52v.53l.06.41.07.27.05.13.05.13.13.25.22.34.37.39.44.31.48.21.51.12h.54l.34-.02zm18.67-1.36l.52-.1.49-.19.45-.29.38-.36.31-.44.17-.37.09-.27v-.9l-.1-.53-.2-.49-.28-.45-.37-.38-.44-.31-.37-.17-.26-.09H161.16l-.46.08-.43.16-.4.22-.36.28-.31.35-.25.39-.18.44-.06.24V24.495l.1.52.2.5.28.44.37.38.43.31.38.18.26.08h.56l.44-.06zm-12.66-.3h.28l.27-.08.38-.15.45-.29.39-.36.3-.43.22-.49.12-.52V23.395l-.05-.24-.17-.47-.24-.42-.31-.36-.36-.3-.41-.24-.45-.17-.48-.08h-.84l-.27.07-.38.16-.45.28-.39.37-.3.43-.22.48-.13.52v.83l.06.28.2.51.29.45.36.38.43.31.49.22.52.12h.41l.28.02zm6.33-.48l.4-.08.5-.19.44-.29.38-.37.31-.43.22-.49.09-.4V22.975l-.08-.4-.2-.5-.29-.44-.36-.38-.44-.31-.49-.22-.39-.09h-.76l-.53.1-.48.21-.44.29-.37.36-.3.43-.21.48-.12.53V23.735l.08.4.19.5.29.45.37.38.43.3.49.22.4.1h.7l.17-.02zm-25.17-1.14h.34l.34-.07.33-.11.32-.14.32-.17.15-.1.15-.1.27-.23.24-.26.22-.27.18-.29.16-.31.12-.31.09-.33.07-.33v-1.02l-.07-.34-.11-.33-.12-.29-.18-.32-.1-.15-.13-.18-.29-.33-.33-.28-.35-.24-.38-.2-.39-.14-.41-.1-.44-.06h-.47l-.51.08-.51.15-.49.24-.23.15-.15.1-.27.24-.24.25-.22.27-.18.29-.16.31-.12.31-.09.33-.07.33v1.02l.07.34.11.33.13.32.18.32.1.15.1.15.23.27.26.24.27.22.29.18.31.16.31.12.33.09.33.07h.34l.35-.03zm48.36-.29h.34l.33-.06.32-.1.32-.13.3-.16.29-.19.27-.21.25-.25.23-.28.1-.15.1-.15.17-.31.13-.33.1-.33.07-.34v-1.06l-.07-.33-.1-.33-.13-.31-.15-.3-.19-.29-.22-.27-.25-.25-.27-.23-.15-.1-.23-.15-.48-.23-.5-.14-.5-.08h-.86l-.41.1-.4.15-.38.2-.36.24-.32.3-.3.33-.13.19-.1.15-.17.32-.13.32-.1.34-.06.33v1.02l.06.33.1.33.13.31.16.31.18.28.22.28.25.25.27.22.15.11.16.1.31.17.33.13.33.1.34.06h.34l.31.09zm-41.06-3.71h.34l.35-.07.34-.11.17-.07.16-.07.31-.18.29-.2.27-.23.23-.25.21-.27.19-.28.15-.3.12-.32.1-.33.06-.33v-1.03l-.07-.34-.11-.34-.07-.17-.11-.25-.28-.44-.34-.4-.39-.33-.42-.28-.46-.21-.48-.14-.51-.07h-.78l-.35.07-.35.11-.17.07-.17.08-.31.17-.29.21-.26.22-.24.25-.21.27-.18.29-.16.3-.12.31-.1.33-.06.33v1.03l.07.35.11.34.07.17.08.16.17.31.2.29.23.27.25.23.27.21.28.19.31.15.31.13.33.09.33.06h.34l.35.02zm33.18-.45h.34l.33-.07.33-.1.31-.13.3-.16.28-.2.26-.21.24-.25.22-.27.2-.29.16-.32.07-.16.07-.18.1-.34.06-.34v-1.03l-.07-.34-.1-.32-.13-.31-.17-.3-.19-.28-.21-.26-.25-.25-.27-.22-.29-.19-.32-.17-.16-.07-.17-.06-.32-.09-.34-.07h-.76l-.52.08-.49.15-.47.22-.43.29-.39.35-.33.4-.28.47-.11.25-.06.17-.1.35-.07.34v1.03l.07.33.11.33.13.31.16.3.19.28.22.26.24.24.27.22.3.2.32.17.16.07.17.06.35.1.34.06h.35l.35-.05zm-24.08-2.32h.36l.34-.11.32-.13.31-.17.28-.19.27-.22.24-.24.21-.26.19-.28.16-.3.14-.31.1-.33.07-.33v-1.24l-.07-.31-.22-.58-.32-.52-.4-.45-.46-.38-.52-.29-.56-.2-.6-.11H145.3l-.34.1-.33.14-.3.16-.29.19-.26.22-.24.24-.22.27-.18.28-.16.29-.14.32-.1.32-.07.34V15.485l.11.34.13.33.17.3.19.29.22.26.24.24.26.22.28.19.3.16.31.13.33.1.34.07h.68l.4.04zm16.07 0h.35l.33-.07.33-.11.31-.13.3-.17.28-.19.26-.21.24-.24.21-.27.2-.28.16-.31.13-.33.11-.34v-1.41l-.07-.34-.11-.32-.13-.31-.16-.3-.19-.28-.22-.26-.24-.24-.27-.22-.28-.19-.31-.16-.33-.14-.34-.1h-1.15l-.6.11-.57.2-.52.3-.46.38-.4.45-.31.53-.18.43-.08.3v1.4l.07.33.1.33.14.31.16.3.19.28.22.26.24.24.26.21.29.19.31.17.32.13.35.1h.71l.35-.03zm-8.09-.76h.36l.34-.07.33-.1.32-.13.3-.17.28-.19.27-.21.23-.24.22-.26.19-.29.16-.3.14-.31.1-.33.07-.35v-1.06l-.06-.34-.1-.33-.13-.31-.16-.3-.18-.27-.21-.26-.23-.24-.26-.22-.27-.19-.29-.17-.31-.13-.32-.11-.33-.08-.35-.05h-.58l-.35.05-.33.08-.32.11-.31.13-.29.17-.27.19-.26.22-.23.24-.21.26-.18.27-.16.3-.13.31-.09.33-.07.34v1.06l.07.35.1.33.14.31.16.3.19.29.22.26.24.24.26.21.28.19.3.17.32.13.33.1.34.07h.72z" fill="url(#b)" style="mix-blend-mode:multiply" transform="translate(.97 .585)"/><path d="M167.61 32.73a27 27 0 00-26.88 1.62 17.61 17.61 0 00-2.62-2.92 18 18 0 00-25.44 1.37 18.1 18.1 0 00-1.7 2.24 27.29 27.29 0 00-14.62-3.68 26.8 26.8 0 00-12.83 3.69A18 18 0 0051 39.92a18.13 18.13 0 00-3.21 0 17.81 17.81 0 00-5.09 1.3 12.83 12.83 0 00-1.11-.77 11 11 0 00-14.58 2.87 15.13 15.13 0 00-4.81.4 14.79 14.79 0 00-3.63 1.41 9.5 9.5 0 00-6-.47 9.61 9.61 0 00-4 2.05 7.12 7.12 0 00-.9.17 8.77 8.77 0 00-6.45 10.6A14 14 0 0018.2 67.81c.4-.1.79-.21 1.18-.34a11 11 0 0015.13-2.09 15.92 15.92 0 003.95-.16 13.5 13.5 0 0021.61.92l.25-.33a22.4 22.4 0 009.24 1.44 22.64 22.64 0 006.48-1.32 22.54 22.54 0 0042.27 0 22.27 22.27 0 009 1.38 21.64 21.64 0 003.34-.44 27 27 0 1037-34.17l-.04.03zM50.08 62.31a4.69 4.69 0 01-3.47-1l-.11-.1a16.14 16.14 0 001.48-1.61 2.5 2.5 0 001.76.71 2.55 2.55 0 001.73-.68c.44.5.89 1 1.37 1.46a4.7 4.7 0 01-2.76 1.22zm24.21-18.23a6.06 6.06 0 00-12.08.64v.37a18.32 18.32 0 00-2.89-2.33 9.23 9.23 0 0117.35-2 26.25 26.25 0 00-2.38 3.32zm32.9 23.48a13.61 13.61 0 01-9.6 4.32 13.77 13.77 0 01-13.84-10.72 22.45 22.45 0 005-7v.11a9.36 9.36 0 018.2-5.4 9.22 9.22 0 018.73 5.17 22.11 22.11 0 005 7.06 13.69 13.69 0 01-3.48 6.46h-.01zm24.66-23.47a5.71 5.71 0 00-11.37.55 26.24 26.24 0 00-2.7-3.87 9.46 9.46 0 011.43-2.11 9.21 9.21 0 0115 1.79 27 27 0 00-2.36 3.64zm23.69 35a22.27 22.27 0 01-20.38-13.7 21.16 21.16 0 002.07-1.05 20 20 0 004 6.17 19.91 19.91 0 0034.41-13v-.62-.68l2.31-.08v.93c-.099 12.28-10.13 22.159-22.41 22.07v-.04zM97.2 52.65a5.5 5.5 0 100 11 5.5 5.5 0 000-11z" fill="#FFF"/><path d="M136.75 37.71c-9.176 9.044-10.683 23.311-3.6 34.073s20.783 15.02 32.718 10.17c11.936-4.85 18.782-17.458 16.35-30.11-2.432-12.652-13.465-21.823-26.348-21.903a26.79 26.79 0 00-19.12 7.77zm18.79 41.42c-12.271-.083-22.152-10.098-22.069-22.37.083-12.271 10.098-22.152 22.37-22.069 12.27.083 22.152 10.098 22.069 22.369a22.06 22.06 0 01-22.37 22.07z" fill="#FFC316"/><path d="M156.2 38.97a17.95 17.95 0 11-18.49 17.39c.332-9.895 8.593-17.665 18.49-17.39z" fill="#010101"/><path d="M142.04 42.41a19.91 19.91 0 1033.55 15.1v-.62a19.91 19.91 0 00-33.56-14.48h.01zm13.16 30.48a16 16 0 1116.47-15.5 15.9 15.9 0 01-16.47 15.5z" fill="#FFC316"/><path d="M33.04 48.375v.07l-.05.07.05-.14zm-18.21 19.23l.69-.07.68-.1.69-.13.34-.08.31-.08.62-.18.6-.21.6-.23.57-.26.57-.29.55-.32.54-.33.52-.36.5-.39.48-.4.47-.43.45-.45.43-.47.41-.48.38-.51.19-.26.34.27.72.5.74.45.76.41.77.37.8.32.82.28.82.23.85.19.85.13.86.09h1.74l.87-.06.88-.11.88-.16.44-.1.38-.1.75-.22.73-.26.72-.3.7-.34.69-.36.66-.41.64-.43.62-.47.6-.49.57-.53.55-.55.51-.58.49-.61.46-.63.42-.66.2-.34V56.895l.13-.09h.28l.14.12.42.6.91 1.14 1 1.08 1 1 1.08.92 1.13.86 1.18.77 1.22.7 1.27.62 1.3.54 1.33.46 1.37.37 1.39.28 1.42.2 1.44.1h2.96l1.53-.19 1.51-.29 1.47-.39 1.43-.48 1.39-.58 1.34-.67 1.3-.76 1.24-.84 1.18-.92 1.12-1 1.05-1.08 1-1.15.9-1.22.83-1.29.74-1.35.34-.71.14-.3.32-.57.36-.55.39-.51.42-.49.45-.45.48-.42.51-.38.53-.35.56-.31.57-.28.6-.23.61-.19.63-.16.64-.1.65-.07h1.48l.7.08.68.12.66.17.64.22.63.26.6.3.57.34.54.37.52.42.48.45.44.48.4.52.36.54.31.58.14.29.18.4.38.77.41.75.43.74.46.71.49.7.51.67.54.65.56.63.58.61.6.58.62.56.64.54.66.51.68.49.7.46.71.43.73.41.74.38.76.36.77.33.78.3.8.27.8.24.81.21.83.18.83.15.84.11.85.09.85.05h2.55l.79-.08.79-.1.78-.12 1.16-.24 1.51-.42 1.47-.52 1.43-.61 1.38-.72 1.33-.8 1.26-.9 1.2-1 1.14-1.07 1.06-1.13 1-1.22.9-1.28.61-1 .39-.69.36-.71.33-.72.16-.37v-.19l.05-.11.13-.32.31-.62.34-.6.39-.56.42-.53.46-.49.49-.46.52-.42.55-.39.57-.34.6-.31.63-.26.64-.21.66-.17.67-.12.69-.07h.82l.92.07.91.15.88.24.85.32.82.4.78.49.73.57.35.31.34.33.6.7.54.74.45.79.38.83.29.87.2.89.12.92v.47l17.55-.53v-.68l-.1-1.33-.17-1.32-.24-1.31-.29-1.28-.36-1.27-.42-1.24-.48-1.22-.54-1.19-.59-1.17-.66-1.13-.71-1.11-.76-1.07-.82-1-.88-1-.93-1-.49-.46-.47-.44-1-.84-1-.78-1-.74-1.07-.68-1.09-.63-1.09-.58-1.14-.52-1.17-.46-1.19-.41-1.21-.35-1.23-.3-1.24-.23-1.26-.18-1.27-.12-1.28-.06h-1.98l-1 .06-1 .1-1 .14-1 .17-.95.21-.94.24-.92.27-.92.3-.9.34-.88.36-.87.4-.86.43-.84.45-.82.49-.8.51-.78.55-.77.57-.74.59-.73.63-.7.65-.67.67-.66.7-.63.72-.61.75-.58.77-.55.8-.53.81-.5.84-.47.86-.44.87-.41.9-.19.46v.23l-.14.33-.35.6-.43.53-.49.47-.56.4-.6.32-.65.23-.68.14h-.91l-.54-.06-.71-.18-.67-.29-.61-.37-.56-.47-.48-.54-.31-.46-.17-.33-.08-.17-.21-.46-.44-.89-.47-.88-.5-.85-.54-.83-.56-.8-.59-.78-.62-.76-.64-.73-.67-.7-.69-.68-.72-.65-.74-.62-.76-.6-.79-.56-.81-.54-.82-.51-.85-.48-.86-.45-.88-.41-.9-.39-.91-.35-.93-.33-.94-.28-.95-.26-1-.22-1-.18-1-.16-1-.11-1-.08h-3.02l-.95.06-.94.1-.93.12-.92.16-.91.19-.91.22-.89.24-.88.28-.86.31-.86.34-.84.36-.83.4-.81.42-.8.45-.78.47-.76.5-.75.53-.72.55-.71.58-.69.6-.67.63-.65.65-.63.67-.6.7-.59.72-.56.74-.53.77-.52.78-.48.81-.46.82-.44.85-.2.43-.15.31-.36.56-.42.5-.49.44-.54.37-.58.29-.63.21-.65.13h-.65l-.62-.05-.61-.12-.57-.2-.55-.27-.51-.33-.47-.41-.42-.46-.18-.26-.36-.5-.76-1-.82-.89-.87-.84-.91-.76-1-.71-1-.64-1-.57-1.07-.5-1.11-.42-1.13-.36-1.16-.27-1.17-.21-1.19-.12h-3.02l-.46.05-.9.14-.89.19-.88.23-.86.27-.84.32-.82.35-.8.4-.79.44-.75.47-.74.51-.71.55-.68.58-.65.62-.62.65-.59.68-.28.35-.32.01-.72-.52-.75-.48-.77-.43-.79-.38-.81-.34-.82-.29-.84-.24-.86-.2-.86-.14-.88-.1h-1.76l-.89.06-.89.11-.89.16-.45.11-.54.14-1.07.34-1 .42-1 .49-.95.57-.91.62-.86.69-.81.75-.38.39-.38-.24-.78-.42-.83-.34-.86-.26-.88-.16-.91-.08h-.92l-.93.12-.46.11-.44.11-.84.3-.79.37-.74.45-.69.51-.63.57-.56.62-.51.68-.44.72-.36.76-.3.79-.21.82-.14.85-.05.86v.87l.12.88.1.44.09.34.2.67.23.66.26.64.28.62.32.6.35.59.38.57.4.55.43.53.45.51.49.49.5.46.53.44.56.42.58.39.29.18.3.18.62.33.62.31.64.26.64.24.66.2.66.17.67.14.67.1.68.08h1.37l.66-.05z" fill="url(#c)" transform="translate(.97 .585)"/><path d="M35.23 54.115l-.44-1-.4-.74-.3-.47-.32-.46-.34-.44-.18-.21-.08-.1-.15-.22-.12-.23-.09-.24v-1.12l.08-.29.12-.28.08-.13.12-.19.3-.32.35-.26.4-.19.21-.06h.66l.43.07.41.14.2.11.11.08.29.23.28.34.19.33.1.26v1.11l-.07.28-.11.27-.07.13v.05l-.27.5-.45 1-.36 1.05-.28 1.07-.1.54-.2-.61zm61.71 25.95h.56l1.12-.09 1.11-.14 1.09-.19 1.07-.25 1.06-.3 1-.35 1-.4 1-.45 1-.5 1-.55.92-.59.9-.64.87-.69.84-.73.81-.78.39-.41.36-.4.7-.82.66-.84.62-.87.57-.9.52-.91.48-.94.43-1 .39-1 .34-1 .3-1 .24-1 .2-1 .15-1.05.1-1.06.05-1.07v-1.69l-.06-.89-.1-.88-.13-.87-.27-.89-.2-.85-.23-.85-.26-.84-.15-.41v-.14l-.81-1.83-.17-.38-.27-.79-.19-.82-.12-.83V43.815l.08-.84.15-.82.23-.81.3-.78.37-.75.44-.72.51-.68.28-.33.31-.33.67-.62.73-.54.77-.47.81-.39.84-.3.88-.23.9-.14h1.83l.9.13.87.21.85.3.82.38.77.47.74.54.35.3.34.31.61.67.55.73.46.77.39.81.31.84.22.88.14.9v1.42l-.08.87-.17.86-.24.83-.16.41v.12l-.19.5-.35 1-.29 1-.25 1-.2 1-.14 1.05-.1 1.05-.05 1.06v.54l.25-.25.73-.79 2.46-2.77 4.14-4.78 2.45-2.92.73-.91.24-.33v-.5l-.09-.9-.14-.87-.17-.87-.22-.86-.26-.84-.3-.82-.34-.81-.38-.79-.42-.77-.45-.75-.49-.73-.53-.7-.57-.68-.6-.66-.64-.63-.33-.3-.34-.3-.69-.57-.72-.53-.74-.48-.76-.45-.78-.42-.79-.37-.81-.33-.83-.29-.84-.25-.85-.21-.86-.16-.88-.13-.88-.08H123.64l-.89.1-.88.13-.86.18-.86.22-.84.26-.82.3-.81.33-.79.38-.77.42-.75.46-.73.49-.7.53-.69.56-.65.61-.63.63-.31.33-.27.32-.53.64-.5.67-.46.68-.43.7-.39.72-.36.73-.33.75-.29.76-.26.78-.22.78-.18.8-.15.8-.11.81-.08.83v2.79l.14 1.11.19 1.08.27 1.07.15.53-.07.17-.05.1.87 1.87.15.32.26.65.24.66.19.67.16.68.13.68.09.7.06.71v1.88l-.06.65-.1.64-.12.63-.15.63-.18.62-.2.6-.24.6-.27.59-.29.57-.32.56-.35.55-.37.53-.4.52-.43.5-.23.24-.23.25-.5.47-.51.45-.53.42-.55.39-.56.36-.59.34-.59.3-.61.28-.62.24-.64.22-.65.18-.65.15-.67.12-.67.09-.68.05H94.82l-.69-.09-.67-.11-.67-.15-.65-.19-.64-.21-.62-.24-.61-.27-.6-.3-.57-.33-.56-.35-.54-.38-.53-.41-.5-.43-.48-.45-.46-.48-.44-.49-.41-.52-.39-.54-.36-.56-.33-.57-.31-.59-.28-.61-.25-.63-.22-.63-.19-.66-.16-.66-.13-.68-.09-.69-.06-.7v-1.58l.07-.81.12-.79.16-.79.21-.77.25-.76.3-.75.17-.37v-.06l.22-.5.39-1 .33-1 .26-1.06.2-1.06.14-1.08.07-1.09v-2.08l-.09-.88-.14-.88-.17-.85-.22-.84-.25-.83-.29-.8-.33-.79-.36-.77-.4-.75-.43-.72-.46-.7-.5-.68-.52-.66-.55-.62-.59-.6-.6-.58-.64-.54-.66-.52-.68-.48-.7-.46-.73-.42-.74-.39-.77-.35-.78-.32-.8-.28-.82-.25-.83-.2-.85-.17-.86-.13-.86-.08H65.9l-.92.09-.9.15-.88.18-.87.23-.85.27-.83.31-.81.34-.79.39-.76.42-.74.46-.72.49-.69.52-.67.56-.63.59-.61.61-.58.65-.54.67-.52.69-.48.72-.45.75-.41.77-.37.78-.34.81-.3.82-.25.85-.22.86-.18.87-.13.89-.09.89V45.865l.16 1.24.23 1.22.32 1.19.4 1.17.48 1.14.56 1.11.71.99.35.52.16.23.26.51.19.54.13.56v1l-.05.46-.09.45-.13.44-.17.43-.22.41-.26.39-.14.18-.16.18-.33.33-.35.3-.38.26-.41.22-.43.17-.44.14-.46.09h-1.4l-.45-.09-.44-.13-.42-.18-.41-.22-.39-.25-.19-.15-.18-.15-.33-.33-.3-.36-.25-.38-.22-.41-.18-.42-.13-.44-.09-.46v-1.31l.15-.69.24-.67.17-.32.25-.46.43-1 .33-1 .24-1 .14-1v-1l-.05-1-.15-1-.12-.52-.14-.53-.36-1-.45-1-.55-.93-.63-.86-.72-.8-.79-.73-.87-.65-.47-.3-.47-.27-1-.48-1-.37-1-.26-1.06-.17-1.07-.05h-1.08l-1.08.16-.54.12-.53.14-1 .36-1 .45-.93.55-.86.63-.8.72-.73.79-.65.87-.3.47-.28.47-.47 1-.37 1-.27 1-.16 1.06-.06 1.07.05 1.08.15 1.07.13.54.07.31.19.62.23.6.26.59.29.57.33.56.36.53.38.52.21.24.09.1.15.22.12.24.09.25v.79l-.06.43-.15.41-.11.2-.13.19-.29.32-.35.26-.4.18-.22.06-.22.05h-.45l-.43-.07-.4-.15-.37-.22-.32-.29-.26-.35-.19-.4-.06-.22-.05-.22v-.75l.08-.29.05-.12.14-.36.24-.72.18-.73.11-.74.06-.76v-.75l-.06-.76-.13-.76-.08-.38-.12-.46-.32-.9-.4-.86-.47-.81-.56-.75-.62-.7-.7-.64-.76-.57-.41-.26-.42-.24-.85-.41-.89-.33-.91-.23-.93-.14-.93-.06-.95.05-.94.13-.47.11-.48.12-.92.33-.87.41-.81.49-.75.56-.69.62-.63.69-.55.74-.48.8-.4.83-.33.87-.24.9-.15.93-.06.94v1l.14 1 .11.48.05.22.15.42.19.4.22.37.26.34.28.31.31.29.34.25.36.22.38.18.4.15.41.11.42.07h1.13l.44-.07h.22l.22-.06.41-.15.4-.19.37-.22.34-.25.32-.29.28-.31.25-.34.22-.36.19-.38.14-.4.11-.41.07-.42v-.87l-.06-.44-.05-.22V53.315l.06-.16.09-.14.11-.12.13-.1.15-.07h.39l.24.06.11.06.11.08.17.18.08.17v.63l-.16.41-.27.84-.2.84-.13.85-.07.86v.86l.08.86.14.86.09.43.07.27.17.54.28.79.47 1 .56.93.64.86.72.79.78.71.85.63.9.55 1 .46 1 .37 1 .27 1.06.18 1.08.07h1.1l.82-.11.56-.11.27-.06.54-.14 1-.36 1-.46.93-.54.86-.64.8-.71.73-.8.65-.87.3-.46.22-.38.39-.79.32-.81.26-.82.1-.42.14.51.35 1 .42 1 .5.93.57.88.63.84.71.79.77.74.42.35.26.21.54.4.56.37.57.34.58.31.6.28.61.25.62.22.62.19.64.16.65.12.65.1.66.06h2.67l.67-.1.65-.13.65-.16.63-.2.62-.22.61-.25.59-.29.58-.31.56-.34.54-.36.53-.4.51-.42.49-.45.47-.47.45-.5.22-.26.21-.26.4-.55.37-.55.34-.57.31-.59.28-.59.25-.61.22-.62.18-.63.16-.64.13-.64.09-.66.06-.65V55.525l-.14-.82-.18-.81-.24-.8-.28-.79-.33-.76-.38-.74-.42-.72-.23-.34-.18-.26-.32-.55-.29-.56-.24-.58-.21-.6-.16-.62-.12-.62-.08-.63v-1.73l.13-.91.22-.88.31-.85.38-.81.46-.76.53-.71.59-.66.65-.61.71-.53.76-.47.81-.4.85-.31.89-.24.92-.14h1.89l.91.14.88.22.85.3.8.39.77.46.71.52.66.59.6.66.54.71.47.76.39.81.32.85.23.89.15.92v1.88l-.07.54-.1.55-.14.53-.17.53-.2.52-.11.26-.28.59-.48 1.22-.42 1.25-.34 1.27-.26 1.3-.19 1.3-.12 1.32V59.165l.09 1.15.15 1.13.21 1.11.26 1.09.31 1.07.36 1 .41 1 .46 1 .51 1 .55.94.59.91.64.88.67.85.72.81.75.78.79.74.82.71.85.66.89.62.92.58.95.54 1 .49 1 .45 1 .39 1.05.35 1.06.3 1.09.24 1.11.2 1.12.13 1.14.08h1.15l.46-.3z" fill="url(#d)" style="mix-blend-mode:multiply" transform="translate(.97 .585)"/><path d="M74.33 44.72a6.06 6.06 0 11-12.12.02 6.06 6.06 0 0112.12-.02z" fill="#EC2227"/><path d="M171.01 40.41c-8.605-8.112-22.02-8.182-30.71-.16a14.93 14.93 0 00-28.62.62 22.69 22.69 0 00-15.2-5.12 22.39 22.39 0 00-13.69 5.15 14.94 14.94 0 00-29.38 3.9 13.43 13.43 0 00-5.18-.49 13.59 13.59 0 00-5.41 1.76 7.93 7.93 0 00-14.64 1.87 11 11 0 00-8.49 1.65 6.55 6.55 0 00-10.68 1.53h-.27a4.39 4.39 0 00-3.23 5.3 9.65 9.65 0 0011.69 7.09 9.66 9.66 0 002-.73 7.93 7.93 0 0014.32-2 11.06 11.06 0 005-.05c.36-.09.72-.2 1.07-.32a10.43 10.43 0 0020 .21 18 18 0 0018.24-.43c1.034 9.907 9.384 17.432 19.345 17.432 9.96 0 18.311-7.525 19.345-17.432a17.95 17.95 0 0026.17-8.31v-.15a13.76 13.76 0 0126.55 4.65l8.77-.27a22.36 22.36 0 00-7-15.7zM15.66 54.51a.81.81 0 01-.58.5.86.86 0 01-1-.63 4.41 4.41 0 00-2.2-2.83 3.88 3.88 0 012.1-1.33 3.94 3.94 0 013.76 1.09 11.12 11.12 0 00-2.08 3.2zm11.45 9.21a5.32 5.32 0 01-5.78-2.39 9.72 9.72 0 002.44-3.45 2.24 2.24 0 013.76-.67 10.8 10.8 0 003.46 2.69 5.31 5.31 0 01-3.88 3.83v-.01zm10.68-12.53v-.05a2.23 2.23 0 01-3.64.34 11 11 0 00-3.45-2.63 5.31 5.31 0 019.99-1.19 13.58 13.58 0 00-2.9 3.54v-.01zm17.86 11.32a7.79 7.79 0 01-11 1.12 7.72 7.72 0 01-2.7-4.45 11 11 0 003.45-3.67v-.07a4.74 4.74 0 013.66-2.42 4.83 4.83 0 014.43 2.1 18.09 18.09 0 003.71 3.94 7.71 7.71 0 01-1.55 3.45zm13.2-8.42a9.19 9.19 0 01-8.09-4 13.75 13.75 0 00-4.65-4.21c0-.17 0-.34-.05-.52-.327-6.568 4.567-12.234 11.114-12.865C73.72 31.865 79.606 36.49 80.54 43a23 23 0 00-3.77 5.64 9.26 9.26 0 01-7.92 5.47v-.02zm28.83 20.84c-9.283.275-17.036-7.018-17.33-16.3v-.32a18.18 18.18 0 004.39-6v.06a13.81 13.81 0 0124.91-.14 17.84 17.84 0 004.38 6c-.06 9.066-7.288 16.456-16.35 16.72v-.02zm37-26.67v.08a9.24 9.24 0 01-17 .31 21.41 21.41 0 00-3.73-5.71 12.3 12.3 0 0124.25-.43 22.74 22.74 0 00-3.44 5.77l-.08-.02z" fill="#FFF"/><path fill="url(#e)" d="M14.56 60.795l.71-.1.35-.08.42-.11.79-.3.75-.38.7-.47.64-.55.57-.62.5-.68.42-.74.17-.4.11-.25.27-.49.32-.44.37-.41.42-.35.45-.31.48-.25.52-.19.26-.07.32-.07.64-.07.63.02.62.11.59.19.57.26.53.35.49.42.22.24.2.23.42.43.44.39.47.36.49.33.51.29.53.25.54.21.56.18.56.14.58.11.58.06.59.02.6-.02.59-.06.6-.1.3-.07.42-.11.83-.3.79-.37.74-.44.68-.52.64-.58.57-.65.51-.72.23-.38.23-.38.51-.71.59-.64.66-.56.71-.47.77-.39.8-.29.85-.19.43-.05.25-.02.48-.02.48.02.47.05.47.08.47.11.45.15.44.17.44.2.41.23.41.26.38.29.37.31.35.34.33.36.31.38.14.21.3.41.63.8.67.75.71.69.75.65.79.59.82.55.85.48.88.43.91.38.93.31.95.26.97.2.98.14 1.01.07 1.01.01.51-.02.54-.04 1.07-.13 1.05-.2 1.03-.28 1-.34.97-.4.94-.47.91-.53.86-.59.83-.65.78-.7.73-.76.68-.81.63-.85.58-.91.51-.95.24-.49.25-.51.54-.99.62-.94.67-.88.73-.84.77-.78.83-.72.88-.66.91-.6.96-.54.99-.47 1.03-.4 1.06-.34 1.08-.26 1.11-.19 1.13-.11.57-.03.62-.01 1.23.05 1.2.14 1.18.22 1.14.3 1.12.38 1.07.45 1.03.53.99.6.94.67.89.74.83.8.77.86.7.92.63.98.56 1.04.25.54.25.54.57 1.05.64 1 .71.93.78.88.84.81.9.75.94.68.99.6 1.04.54 1.07.45 1.11.38 1.13.29 1.16.21 1.18.12 1.19.03.6-.03.56-.03 1.1-.14 1.08-.22 1.06-.29 1.03-.37 1-.43.97-.5.92-.57.89-.63.84-.69.79-.74.74-.8.68-.85.63-.9.56-.95.5-1 .22-.51.04-.09.23-.55.53-1.08.59-1.02.67-.98.72-.91.79-.86.85-.79.9-.73.94-.67 1-.59 1.04-.53 1.07-.45 1.11-.37 1.14-.29 1.16-.21 1.19-.13.61-.02.4-.01.81.02.79.05.79.09.79.13.77.17.76.2.75.25.73.28.72.31.71.35.69.39.67.42.65.45.64.49.61.52.29.27.3.28.55.58.53.6.49.63.46.64.43.67.39.68.36.7.32.72.29.73.25.75.22.76.17.77.14.78.11.79.06.81.02.4 3.94-.12-.02-.5-.08-1-.12-.99-.18-.97-.22-.96-.27-.95-.31-.93-.36-.91-.4-.89-.44-.87-.49-.85-.53-.83-.57-.8-.62-.77-.65-.75-.7-.72-.36-.35-.36-.33-.73-.63-.75-.58-.78-.55-.8-.51-.82-.47-.84-.43-.85-.39-.88-.34-.89-.31-.9-.26-.92-.22-.93-.18-.94-.13-.94-.09-.96-.04-.48-.01h-.32l-.31.01-.75.03-1.47.16-1.45.26-1.41.36-1.37.45-1.33.56-1.28.64-1.23.74-1.18.82-1.12.9-1.05.98-.98 1.05-.9 1.13-.83 1.2-.74 1.26-.66 1.33-.29.68-.01.03-.02.04-.16.39-.37.75-.42.72-.47.68-.51.65-.55.6-.59.56-.63.53-.67.47-.69.43-.73.38-.75.33-.77.27-.8.22-.81.17-.83.1-.42.03-.45.02-.89-.02-.88-.09-.87-.16-.85-.22-.82-.28-.8-.34-.78-.39-.74-.46-.7-.5-.67-.56-.63-.61-.58-.65-.53-.7-.48-.75-.43-.78-.18-.41-.16-.34-.32-.66-.35-.65-.38-.63-.6-.92-.88-1.15-.95-1.09-1.04-1-1.1-.92-1.17-.85-1.24-.75-1.28-.66-1.34-.57-1.39-.48-1.43-.38-1.46-.27-1.5-.18-1.52-.06-.77.02-.71.03-1.41.14-1.38.23-1.34.33-1.32.41-1.28.51-1.23.59-1.2.67-1.14.75-1.08.82-1.04.91-.97.97-.9 1.04-.84 1.11-.77 1.17-.68 1.24-.32.64-.17.37-.38.7-.43.68-.47.64-.52.6-.54.57-.58.52-.62.49-.65.44-.67.39-.7.36-.73.3-.75.25-.77.21-.78.15-.8.1-.41.03-.38.01-.75-.01-.75-.05-.74-.1-.72-.15-.71-.19-.7-.24-.67-.28-.66-.32-.63-.37-.62-.4-.59-.44-.56-.49-.53-.52-.5-.55-.47-.6-.22-.31-.22-.31-.48-.6-.5-.56-.55-.52-.57-.48-.59-.44-.63-.39-.65-.36-.66-.31-.69-.27-.7-.22-.72-.17-.73-.13-.74-.07-.74-.03-.75.02-.38.04-.34.03-.66.11-.66.15-.64.19-.63.22-.61.27-.59.29-.57.33-.56.37-.53.4-.5.42-.48.46-.46.49-.42.52-.4.54-.36.57-.17.3-.12.2-.28.38-.3.35-.35.32-.37.27-.39.24-.43.2-.45.16-.23.06-.32.07-.64.07-.64-.03-.63-.11-.6-.19-.57-.28-.53-.35-.49-.43-.22-.25-.2-.22-.43-.43-.45-.39-.47-.35-.49-.32-.51-.29-.53-.25-.54-.21-.55-.17-.56-.14-.57-.1-.58-.06-.59-.02-.58.02-.59.06-.59.1-.29.07-.25.06-.49.15-.47.18-.47.21-.45.23-.43.26-.42.28-.39.3-.39.33-.36.35-.34.37-.32.39-.29.41-.28.43-.24.44-.23.46-.1.24-.08.18-.19.34-.22.31-.26.28-.29.24-.31.22-.34.17-.37.13-.19.05-.16.04-.32.05-.32.01-.31-.02-.32-.04-.31-.09-.3-.11-.29-.14-.14-.08-.14-.09-.26-.19-.23-.22-.22-.23-.19-.26-.16-.27-.13-.3-.11-.3-.04-.16-.06-.19-.16-.36-.23-.31-.29-.26-.32-.19-.36-.13-.38-.07-.39.02-.2.04-.19.06-.36.16-.31.23-.25.28-.2.33-.13.35-.06.38.01.4.04.2.09.35.24.67.3.64.35.61.42.56.47.53.52.48.57.42.31.2.31.18.64.31.67.24.68.18.69.1.71.04z" transform="translate(.97 .585)"/><path d="M38.2 49.86a2.53 2.53 0 11-5.06 0 2.53 2.53 0 015.06 0z" fill="#8FC640"/><path d="M52.27 57.74a2.53 2.53 0 11-5.06-.02 2.53 2.53 0 015.06.02z" fill="#1B8ECE"/><path fill="#EC2227" d="M211.62 23.45h-.06l.06.1zM210.34 21.51c.22-.493.71-.81 1.25-.81v-1.49a1.37 1.37 0 110-2.73V15a1.37 1.37 0 110-2.73v-1.48a1.37 1.37 0 110-2.73V6.58a1.37 1.37 0 110-2.73V2.37a1.36 1.36 0 01-1.37-1.36V.95h-1.49v.06a1.37 1.37 0 01-2.73 0V.95h-1.48v.06a1.37 1.37 0 01-2.73 0V.95h-1.49v.06a1.37 1.37 0 01-2.74 0V.95h-1.48v.06a1.37 1.37 0 01-2.73 0V.95h-1.45v.06a1.35 1.35 0 01-.86 1.27 66 66 0 0119.3 19.23zM188.9 1l.28.17v-.11V1h-.28z"/><path d="M187.69 1v.06a1.37 1.37 0 01-2.73 0V1h-1.48v.06a1.37 1.37 0 01-2.73 0V1h-1.49v.06c0 .58-.37 1.095-.92 1.28a60 60 0 0132 31.75 1.34 1.34 0 011.21-.75v-1.48a1.37 1.37 0 110-2.73v-1.49a1.37 1.37 0 110-2.73v-1.4l-.06-.1a1.36 1.36 0 01-1.22-1.92 65.77 65.77 0 00-19.3-19.2c-.16.06-.33.09-.5.09a1.36 1.36 0 01-1.36-1.25l-.28-.17-1.14.04zM176.56 1.06V1h-1.48v.09l1.63.59a1.29 1.29 0 01-.15-.62zM211.62 36.07a1.56 1.56 0 01-.44-.07c.16.41.32.82.47 1.24l-.03-1.17z" fill="#FFC316"/><path d="M178.37 2.34a1.33 1.33 0 01-.45.08 1.36 1.36 0 01-1.21-.74l-1.63-.59a1.37 1.37 0 01-2.73 0v-.06h-1.48v.06a1.37 1.37 0 01-2.74 0v-.06h-1.49v.06a1.37 1.37 0 01-2.73 0v-.06h-1.48v.06a1.37 1.37 0 01-2.73 0v-.06h-1.49v.06a1.37 1.37 0 01-2.74 0v-.06h-1.48v.06a1.36 1.36 0 01-1.36 1.36h-.06v1.48a1.37 1.37 0 010 2.73v1.09c.91-.05 1.82-.08 2.74-.08 27.557.006 49.894 22.343 49.9 49.9 0 .82 0 1.64-.06 2.45h.79a1.36 1.36 0 112.72 0h1.54a1.18 1.18 0 010-.27 1.37 1.37 0 011.35-1.15v-1.48a1.37 1.37 0 110-2.73v-1.48a1.37 1.37 0 110-2.73V48.7a1.37 1.37 0 110-2.73v-1.46a1.37 1.37 0 110-2.73V40.3a1.37 1.37 0 010-2.74v-.31c-.15-.42-.31-.83-.46-1.25a1.34 1.34 0 01-.79-1.9 59.91 59.91 0 00-31.93-31.76z" fill="#010101"/><path d="M187.23 54.095l-.47-.08-.45-.17-.41-.24-.36-.3-.31-.38-.24-.42-.17-.46-.05-.25V50.965l.12-.52.22-.48.31-.43.38-.37.45-.29.38-.15.27-.08h.97l.52.12.48.22.43.31.37.38.28.45.16.38.07.27v.97l-.12.52-.22.48-.31.43-.38.37-.45.28-.38.16-.27.07H187.23v.04zm9.11-1.92l-.6-.1-.56-.21-.52-.29-.47-.38-.39-.45-.32-.52-.23-.58-.07-.31v-1.23l.07-.34.1-.32.13-.32.16-.29.19-.28.22-.27.24-.24.26-.22.29-.19.3-.16.33-.14.34-.1h1.34l.32.06.31.09.3.11.28.14.28.17.25.19.24.21.22.23.2.26.17.27.15.29.13.31.09.32v1.33l-.06.32-.09.31-.12.3-.14.29-.16.27-.19.26-.22.24-.23.22-.26.2-.27.17-.29.15-.31.12-.16.05h-1.31l.06.06zm-10.77-4.35l-.41-.06-.39-.12-.37-.18-.33-.23-.31-.28-.26-.32-.21-.38-.08-.2-.05-.13-.07-.27-.06-.41v-.53l.12-.52.22-.48.3-.43.39-.37.34-.23.25-.12h.13l.14-.05.27-.07.4-.06h.54l.51.12.48.22.44.3.37.39.22.34.13.25.05.13.05.14.07.27.06.4v.54l-.12.51-.22.48-.31.44-.38.37-.35.22-.25.13-.13.05-.24.08-.49.09h-.45v-.03zm8.18-4.22l-.5-.08-.49-.14-.46-.21-.43-.28-.38-.34-.34-.39-.28-.45-.11-.25-.07-.17-.1-.34-.07-.35v-1.02l.07-.33.09-.33.13-.31.15-.3.19-.29.21-.26.24-.25.26-.23.29-.2.32-.17.16-.07.16-.07.16-.05.16-.05.32-.07h1.29l.31.07.3.11.29.13.28.16.26.18.25.21.23.23.21.25.18.28.16.29.07.16.07.16.1.32.07.32v1.29l-.08.31-.11.3-.13.29-.16.28-.18.26-.21.25-.23.23-.25.2-.28.19-.14.08-.15.08-.16.07-.17.07-.34.11-.35.07h-.78l-.03.05zm-11.29-2h-.33l-.33-.08-.31-.13-.3-.16-.29-.19-.25-.24-.23-.27-.1-.15-.08-.12-.12-.25-.14-.38-.1-.53v-.53l.11-.52.21-.48.3-.45.29-.29.22-.17.11-.08.12-.07.25-.13.39-.14.53-.09h.53l.51.11.49.21.44.3.29.29.18.22.08.12.07.12.13.25.14.38.09.53v.53l-.12.51-.21.49-.3.44-.29.29-.21.18-.12.08-.18.1-.36.17-.37.1-.39.06h-.36l.01-.03zm-4.13-5.1l-.53-.11-.38-.15-.24-.13-.24-.16-.21-.19-.11-.1-.09-.11-.18-.21-.21-.35-.19-.5-.09-.53v-.52l.11-.52.21-.49.23-.35.18-.21.1-.1.11-.09.22-.18.35-.21.5-.19.52-.09h.52l.52.11.49.21.35.23.21.18.1.1.09.1.18.22.21.35.19.5.09.53v.52l-.11.52-.21.49-.23.34-.18.22-.1.1-.2.18-.45.29-.49.19-.51.1h-.53v.01zm11.47-.2l-.42-.05-.41-.1-.4-.15-.38-.19-.35-.24-.33-.29-.28-.36-.13-.19-.1-.15-.17-.31-.14-.33-.1-.33-.07-.34v-1.01l.06-.34.1-.32.13-.32.15-.3.19-.29.21-.27.25-.26.27-.23.15-.1.14-.09.14-.08.15-.08.31-.13.31-.11.32-.07h1.27l.31.07.31.1.29.13.28.16.27.18.26.21.23.23.22.26.1.14.09.15.16.29.13.31.1.31.07.31.05.32v.64l-.05.32-.07.31-.1.3-.13.3-.16.28-.18.27-.21.25-.23.23-.13.11-.13.11-.14.09-.23.15-.48.23-.5.15-.51.08h-.47l-.02.04zm-16.17-3.91l-.41-.06-.4-.13-.39-.19-.2-.09-.12-.09-.21-.18-.27-.3-.28-.46-.19-.5-.09-.52v-.53l.11-.52.16-.38.14-.24.08-.12.08-.11.18-.21.31-.28.45-.28.5-.18.52-.09h.53l.52.12.38.16.24.13.12.08.11.09.21.18.28.31.28.45.19.5.09.52v.53l-.11.52-.16.38-.14.24-.08.12-.1.14-.23.25-.25.21-.28.18-.29.15-.3.11-.31.07h-.69l.02.02zm-5.57-3.23h-.29l-.28-.06-.28-.09-.14-.06-.13-.06-.24-.14-.33-.24-.36-.4-.28-.45-.19-.49-.09-.52v-.54l.08-.4.09-.26.05-.13.06-.13.14-.24.25-.33.39-.37.45-.27.5-.19.52-.09h.53l.41.08.26.09.13.06.13.06.24.14.33.24.36.4.28.45.19.49.09.52v.54l-.09.4-.09.26-.05.13-.09.19-.22.34-.26.3-.3.26-.33.21-.35.16-.38.11h-.72l.01.03zm16.63.92h-.34l-.33-.07-.33-.09-.32-.13-.31-.16-.29-.2-.28-.23-.13-.12-.13-.16-.22-.28-.2-.29-.16-.31-.13-.32-.09-.33-.07-.33v-1.01l.07-.34.09-.32.13-.32.16-.31.2-.29.22-.28.13-.13.12-.12.12-.1.13-.11.28-.18.29-.16.3-.13.3-.1.31-.08h1.28l.31.07.31.1.3.13.28.16.28.18.26.22.12.12.12.12.22.26.18.28.16.28.13.3.1.31.07.31v1.28l-.07.31-.11.31-.13.29-.15.29-.19.28-.11.13-.1.12-.12.12-.13.13-.28.22-.29.2-.31.16-.31.13-.33.09-.34.07h-.67v.03zm-23.46-3.16h-.56l-.27-.08-.37-.17-.44-.31-.36-.44-.29-.44-.2-.49-.1-.53v-.96l.09-.27.17-.37.3-.44.38-.37.45-.29.49-.2.52-.1h.97l.26.08.38.17.44.31.37.38.29.44.19.49.11.53v.82l-.05.24-.18.45-.25.39-.31.35-.36.29-.4.22-.44.16-.46.08h-.37v.06zm16.93-2.15l-.51-.07-.49-.15-.48-.23-.23-.14-.15-.11-.28-.23-.24-.25-.22-.27-.19-.28-.16-.31-.12-.31-.1-.33-.07-.33v-1.02l.07-.33.1-.34.13-.32.17-.32.1-.15.09-.14.11-.13.1-.13.24-.23.25-.21.27-.19.28-.16.29-.13.3-.1.31-.08h1.28l.31.06.32.1.3.13.3.16.14.1.14.09.27.22.23.23.21.25.19.27.15.28.13.3.11.3.07.31.05.32v.96l-.07.31-.1.32-.14.3-.07.15-.08.14-.09.14-.14.19-.29.34-.33.29-.35.24-.38.2-.4.15-.41.1-.42.05h-.47l-.03-.01zm-8.07-4.29h-.33l-.32-.06-.32-.09-.16-.06-.17-.07-.32-.16-.29-.2-.28-.21-.24-.25-.22-.26-.19-.28-.17-.3-.13-.31-.11-.32-.07-.33v-1.03l.06-.35.1-.34.06-.17.07-.16.07-.15.08-.15.18-.28.2-.26.22-.23.24-.22.26-.19.27-.16.29-.14.3-.12.3-.08.32-.06h.97l.33.06.32.09.16.06.16.07.3.15.28.18.26.2.23.22.22.25.19.25.16.28.14.28.11.3.09.31.06.32v.97l-.06.32-.05.17-.05.16-.06.16-.11.25-.27.47-.33.41-.39.35-.43.29-.47.22-.5.15-.52.08h-.42l-.02-.03zm-8-2.29H161.43l-.34-.1-.33-.13-.31-.16-.29-.19-.26-.22-.24-.23-.22-.26-.19-.28-.17-.3-.14-.31-.1-.32-.08-.34V13.795l.05-.16.12-.31.15-.29.17-.28.19-.25.22-.24.24-.22.25-.19.27-.17.29-.14.29-.12.31-.09.32-.07H162.96l.33.09.31.12.29.15.27.17.26.2.24.22.21.23.19.26.17.27.15.28.11.3.1.31.06.32V15.495l-.09.31-.17.44-.32.52-.39.46-.47.38-.52.3-.57.21-.6.11h-.47l.04-.03zm22 41.09l.05-.24.1-.23.13-.2.17-.18.19-.14.22-.11.24-.06h.13v-1.12l.1-.4.21-.49.31-.43.38-.37.44-.29.49-.2.41-.09H188.49l.4.1.49.21.44.31.37.38.29.44.2.5.08.4v.67l-.1.48-.08.23.1.09.16.22.12.24.07.28v.14h1.48v-.13l.06-.26.11-.24.15-.21.18-.18.21-.15.25-.09.26-.06H194.18l-.09-.28-.1-.58v-.85l.07-.34.1-.33.13-.32.17-.3.19-.28.21-.26.24-.24.26-.22.28-.19.3-.16.32-.14.33-.1.35-.07h1.03l.33.06.32.09.3.12.29.14.27.17.25.2.24.21.21.24.2.25.17.27.15.29.12.3.09.32.06.32v1.04l-.07.34-.1.32-.13.31-.15.3-.19.27-.2.26-.11.12h.86v-.13l.06-.26.11-.24.15-.21.18-.18.22-.15.24-.09.26-.06h.27l.26.06.25.09.21.15.18.18.15.21.11.24.06.26v.13h.64v-4.38l-.06-1.28-.1-1.26-.13-1.26-.16-1.25-.19-1.24-.22-1.23-.24-1.21-.28-1.21-.31-1.2-.34-1.18-.36-1.17-.39-1.16-.42-1.15-.45-1.13-.47-1.12-.5-1.11-.53-1.09-.55-1.07-.58-1.06-.6-1-.62-1-.65-1-.67-1-.7-1-.72-1-.74-.94-.76-.93-.79-.9-.8-.89-.83-.87-.84-.84-.87-.83-.89-.8-.9-.79-.93-.76-.94-.74-1-.72-1-.7-1-.67-1-.65-1-.62-1-.6-1.06-.58-1.08-.55-1.09-.53-1.1-.5-1.12-.47-1.13-.45-1.15-.42-1.16-.39-1.17-.36-1.18-.34-1.2-.31-1.21-.27-1.21-.25-1.23-.22-1.24-.19-1.25-.16-1.26-.13-1.27-.1-1.27-.06h-4.67v.39h.14l.26.06.25.11.21.14.18.19.15.22.1.24v.8l-.1.25-.15.21-.18.19-.21.14-.25.11-.26.06h-.14v1.46l.13-.14.27-.27.3-.24.33-.21.35-.16.37-.14.38-.08.4-.05h.72l.32.06.32.09.3.12.29.15.27.17.25.2.24.21.21.24.2.25.17.27.14.29.12.31.09.31.07.33V14.405l-.07.35-.1.33-.14.32-.16.3-.19.28-.22.26-.24.24-.26.21-.28.19-.3.17-.32.13-.33.11-.34.07H153.87l-.35-.07-.34-.11-.17-.07v.52l-.1.25-.15.21-.18.19-.21.15-.25.1-.26.06h-.14v1.47h.14l.25.05.24.1.21.14.18.18.14.21.11.23.06.25v.14l.19-.17.44-.28.48-.19.53-.1h.69l.4.1.49.21.44.3.36.38.29.45.21.49.08.4V23.795l-.1.4-.21.49-.3.44-.38.36-.45.29-.49.2-.4.09h-.69l-.51-.11-.47-.2-.42-.27-.19-.17v.68l-.1.24-.15.22-.18.18-.21.15-.25.1-.26.06h-.14v1.47h.3l.28.1.32.21.24.3.09.17H155.88l1.33.09 1.31.15 1.3.22 1.29.28 1.26.34 1.25.4 1.22.46 1.2.53 1.18.58 1.14.64 1.12.7 1.09.76 1.05.81 1 .87.49.46.49.46.93 1 .88 1 .82 1 .76 1.07.71 1.11.66 1.13.59 1.17.54 1.19.48 1.22.42 1.24.36 1.27.29 1.28.24 1.31.17 1.32.1 1.33v3.38h.11l.2.09.19.11.17.15.14.17.11.19.08.21V59.225h1.48l.06.06z" fill="url(#f)" transform="translate(.97 .585)"/><path d="M153.2 23.32a1.32 1.32 0 01-.56.13v1.48c.249 0 .492.073.7.21a2.75 2.75 0 01-.23-1.15 2.93 2.93 0 01.09-.67z" fill="#FFC316"/><path fill="url(#g)" d="M152.31 24.415l-.09-.27-.06-.29-.03-.3v-.15l.01-.17.05-.34.04-.17-.13.06-.28.07-.15.01v1.48l.19.01.35.11.15.09z" transform="translate(.97 .585)"/><path d="M198.72 54.03h-.33a3.53 3.53 0 00-3.33 4.7c.578.162.983.68 1 1.28h1.48a1.36 1.36 0 112.72 0h.62a3.53 3.53 0 00-2.21-6l.05.02zM170.26 24.51a2.75 2.75 0 101.38 3.63 2.76 2.76 0 00-1.38-3.63zM176.36 27.97a2.75 2.75 0 10-3.18 4.488 2.75 2.75 0 003.18-4.488zM188.92 55.27a2.75 2.75 0 00-2.71 3.41h.12A1.38 1.38 0 01187.7 60h1.5a1.36 1.36 0 012.26-.98 2.92 2.92 0 00.19-.95 2.75 2.75 0 00-2.73-2.8zM162.87 22.06a2.75 2.75 0 102.12 3.26 2.76 2.76 0 00-2.12-3.26zM181.52 32.42a2.75 2.75 0 10-3.967 3.81 2.75 2.75 0 003.967-3.81zM187.95 49.23a2.75 2.75 0 103.17 2.25 2.74 2.74 0 00-3.17-2.25zM185.88 37.94a2.75 2.75 0 10-.83 3.8 2.76 2.76 0 00.83-3.8zM187.68 48.24a2.75 2.75 0 10-3.54-1.6 2.76 2.76 0 003.54 1.6zM158.6 24.07a2.75 2.75 0 00-4.63-2v.07a1.36 1.36 0 01-.79 1.23 2.93 2.93 0 00-.09.67 2.75 2.75 0 00.23 1.15c.317.197.541.515.62.88a2.76 2.76 0 004.66-2zM191.69 42.05a3.54 3.54 0 004.94 1.71 3.53 3.53 0 00-2.76-6.46l-.32.12a3.52 3.52 0 00-1.86 4.63zM183.29 29.62a3.52 3.52 0 005 0l.22-.24a3.536 3.536 0 00-5-5l-.24.22a3.52 3.52 0 00.02 5.02zM188.02 35.33a3.53 3.53 0 004.9.94l.27-.21a3.53 3.53 0 00-4-5.8 2.09 2.09 0 00-.28.17 3.52 3.52 0 00-.89 4.9zM158.9 14.51v-.32a3.52 3.52 0 00-6.25-1.9 1.37 1.37 0 010 2.73v1.49a1.35 1.35 0 011.33 1.24c.444.197.924.3 1.41.3a3.54 3.54 0 003.51-3.54zM194.11 49.92a3.53 3.53 0 004.15 2.78l.32-.07a3.53 3.53 0 00-1.35-6.9l-.33.05a3.53 3.53 0 00-2.79 4.14zM177.38 24.76a3.54 3.54 0 004.9-1c.06-.09.113-.183.16-.28a3.52 3.52 0 00-5.82-3.92 2.69 2.69 0 00-.2.27 3.53 3.53 0 00.96 4.93zM162.53 18.71a3.54 3.54 0 004.11-2.83v-.34a3.53 3.53 0 00-6.91-1.27c0 .11-.06.22-.08.33a3.54 3.54 0 002.88 4.11zM169.89 20.82a3.52 3.52 0 004.57-2 1.73 1.73 0 00.11-.32 3.53 3.53 0 00-6.53-2.58 3.53 3.53 0 001.85 4.9z" fill="#FFF"/><path d="M182.48 56a26.92 26.92 0 00-27.73-26.09h-.89c.076.174.117.36.12.55a1.36 1.36 0 01-1.35 1.36v1.48a1.36 1.36 0 011.29 1h1a22.53 22.53 0 0123.14 24.39 1.35 1.35 0 011.26 1.31h1.48a1.38 1.38 0 011.37-1.32c.1-.01.2-.01.3 0a27 27 0 00.01-2.68z" fill="#FFC316"/><path fill="url(#h)" d="M179.81 59.265l.06-.26.1-.24.15-.21.19-.18.21-.14.24-.1.26-.05.14-.01.15.01.15.03.04-.67.03-1.36-.02-.68-.02-.67-.11-1.34-.17-1.32-.23-1.3-.3-1.28-.36-1.27-.42-1.24-.47-1.22-.54-1.19-.6-1.17-.65-1.14-.71-1.1-.77-1.08-.82-1.04-.88-1-.93-.96-.48-.47-.48-.44-.97-.83-1.01-.79-1.05-.73-1.06-.68-1.1-.63-1.12-.57-1.15-.52-1.17-.46-1.19-.41-1.21-.35-1.23-.3-1.24-.24-1.25-.17-1.27-.12-1.28-.06-.65-.01h-.42l-.42.01-.44.02-.45.03.05.12.06.28.01.15-.01.13-.05.27-.1.24-.14.22-.19.18-.21.15-.24.11-.26.05-.14.01v1.48h.11l.22.04.21.08.19.11.17.13.14.16.12.18.09.2.04.1.47-.03.48-.02.57-.01 1.12.02 1.11.07 1.1.13 1.09.18 1.07.24 1.06.28 1.05.34 1.02.39 1.01.44.98.48.96.54.94.59.9.63.89.68.85.73.41.38.41.39.78.81.73.84.69.87.64.89.59.93.55.95.5.98.45.99.4 1.03.35 1.04.3 1.05.25 1.08.19 1.09.14 1.1.09 1.12.02.56.02.65-.04 1.28-.04.63.12.01.25.06.22.11.2.14.17.18.14.2.09.23.06.25.01.13h1.48z" transform="translate(.97 .585)"/><path fill="url(#i)" d="M179.81 59.265l.06-.26.1-.24.15-.21.19-.18.21-.14.24-.1.26-.05.14-.01.15.01.15.03.04-.67.03-1.36-.02-.68-.02-.67-.11-1.34-.17-1.32-.23-1.3-.3-1.28-.36-1.27-.42-1.24-.47-1.22-.54-1.19-.6-1.17-.65-1.14-.71-1.1-.77-1.08-.82-1.04-.88-1-.93-.96-.48-.47-.48-.44-.97-.83-1.01-.79-1.05-.73-1.06-.68-1.1-.63-1.12-.57-1.15-.52-1.17-.46-1.19-.41-1.21-.35-1.23-.3-1.24-.24-1.25-.17-1.27-.12-1.28-.06-.65-.01h-.42l-.42.01-.44.02-.45.03.05.12.06.28.01.15-.01.13-.05.27-.1.24-.14.22-.19.18-.21.15-.24.11-.26.05-.14.01v1.48h.11l.22.04.21.08.19.11.17.13.14.16.12.18.09.2.04.1.47-.03.48-.02.57-.01 1.12.02 1.11.07 1.1.13 1.09.18 1.07.24 1.06.28 1.05.34 1.02.39 1.01.44.98.48.96.54.94.59.9.63.89.68.85.73.41.38.41.39.78.81.73.84.69.87.64.89.59.93.55.95.5.98.45.99.4 1.03.35 1.04.3 1.05.25 1.08.19 1.09.14 1.1.09 1.12.02.56.02.65-.04 1.28-.04.63.12.01.25.06.22.11.2.14.17.18.14.2.09.23.06.25.01.13h1.48z" transform="translate(.97 .585)"/><path fill="url(#j)" d="M154.57 59.265l.06-.26.11-.24.15-.21.18-.18.21-.14.25-.1.26-.05.14-.01.13.01.26.05.25.1.21.14.19.18.14.21.11.24.06.26.01.14h1.48l.01-.14.06-.26.1-.24.15-.21.19-.18.21-.14.24-.1.26-.05.14-.01.14.01.26.05.24.1.22.14.18.18.15.21.11.24.06.26v.14h1.48l.02-.2.12-.35.2-.31.28-.24.16-.09.14-.06.29-.07.16-.01.13.01.27.05.24.1.21.14.19.18.14.21.11.24.06.26.01.14h1.48l.01-.12.04-.22.08-.21.11-.19.14-.17.17-.14.18-.12.21-.09.11-.02.07-.58.06-1.15-.01-.59-.01-.34-.05-.68-.09-.68-.12-.66-.15-.66-.18-.65-.22-.63-.24-.62-.28-.61-.3-.6-.34-.58-.36-.56-.39-.55-.42-.53-.45-.52-.47-.49-.25-.23-.25-.23-.49-.43-.52-.4-.53-.37-.55-.35-.56-.32-.57-.3-.59-.26-.6-.24-.6-.21-.62-.18-.63-.15-.63-.12-.65-.09-.65-.06-.65-.03-.33-.01-.21.01h-.22l-.59.03-.59.06v.14l-.06.26-.1.23-.15.21-.18.18-.21.14-.24.1-.26.06-.13.01v1.47l.18.02.17.05.11.03.2.09.18.13.15.14.13.17.11.19.07.21.04.22v.12l-.01.13-.01.13-.03.12-.09.21-.11.2-.15.17-.17.15-.2.12-.22.08-.23.05h-.12v1.48l.14.01.26.06.24.1.21.15.19.18.14.22.1.24.05.27.01.13-.01.14-.05.27-.1.24-.14.22-.19.18-.21.15-.24.1-.26.06-.14.01v1.48h.14l.26.06.24.11.21.15.19.18.14.22.1.24.05.26.01.14-.01.14-.05.26-.1.25-.14.21-.19.19-.21.14-.24.11-.26.06h-.14v1.48l.17.01.32.09.29.16.24.22.09.13.06.08.11.19.08.21.04.21.01.12h1.48z" transform="translate(.97 .585)"/><path d="M171.73 56.32a16.17 16.17 0 00-16.66-15.67 18 18 0 00-2.44.26v.84a1.37 1.37 0 011.35 1.37c.39-.05.78-.08 1.18-.1 7.593-.219 13.93 5.748 14.17 13.34.02.772-.02 1.544-.12 2.31a1.06 1.06 0 01.31 0 1.36 1.36 0 011.36 1.32h.56c.233-1.209.33-2.44.29-3.67z" fill="#FFF"/><path d="M178.09 56.13a22.53 22.53 0 00-23.21-21.84h-1c.035.12.055.245.06.37a1.37 1.37 0 01-1.35 1.36v.84c.77-.11 1.544-.18 2.32-.21 11.106-.33 20.382 8.395 20.73 19.5a20.76 20.76 0 01-.24 3.79h1.12a1.36 1.36 0 011.36-1.32h.1a21.6 21.6 0 00.11-2.49z" fill="#FFF"/><path d="M175.68 56.2a20.12 20.12 0 00-20.73-19.5c-.776.03-1.55.1-2.32.21v.64a1.36 1.36 0 010 2.72v.64a18 18 0 012.44-.26 16.17 16.17 0 0116.66 15.67 16.55 16.55 0 01-.3 3.67h.92a1.37 1.37 0 012.73 0h.36c.2-1.253.28-2.522.24-3.79z" fill="#FFF"/><path fill="url(#k)" d="M171.4 59.265l.06-.26.1-.24.15-.21.18-.18.22-.14.24-.1.26-.05.14-.01.13.01.27.05.24.1.21.14.19.18.14.21.11.24.06.26.01.14h.36l.07-.47.11-.94.06-.95.01-.95-.01-.48-.02-.5-.08-1-.12-.99-.18-.97-.22-.96-.27-.95-.31-.93-.36-.91-.4-.89-.44-.87-.49-.85-.53-.83-.57-.8-.62-.77-.65-.75-.7-.72-.36-.35-.36-.33-.73-.63-.75-.58-.78-.55-.8-.51-.82-.47-.84-.43-.85-.39-.88-.34-.89-.31-.9-.26-.92-.22-.93-.18-.94-.13-.94-.09-.96-.04-.48-.01h-.32l-.31.01-.59.03-1.16.1-.57.08v.63l.14.01.26.06.24.11.21.14.19.19.14.21.1.25.05.26.01.14-.01.14-.05.26-.1.24-.14.22-.19.18-.21.15-.24.11-.26.05-.14.01v.64l.6-.1 1.22-.13.62-.03.4-.01.81.02.79.05.79.09.79.13.77.17.76.2.75.25.73.28.72.31.71.35.69.39.67.42.65.45.64.49.61.52.29.27.3.28.55.58.53.6.49.63.46.64.43.67.39.68.36.7.32.72.29.73.25.75.22.76.17.77.14.78.11.79.06.81.02.4.01.47-.03.92-.08.92-.13.91-.08.45h.93z" transform="translate(.97 .585)"/><path d="M135.63 44.78a9.44 9.44 0 11-18.88 0 9.44 9.44 0 0118.88 0z" fill="#FFC316"/><path d="M131.9 44.78a5.72 5.72 0 11-5.71-5.72 5.71 5.71 0 015.71 5.72zM106.65 57.98a9.44 9.44 0 11-18.88-.06 9.44 9.44 0 0118.88.06z" fill="#010101"/><path d="M102.92 57.98a5.71 5.71 0 11-11.42 0 5.71 5.71 0 0111.42 0z" fill="#EC2227"/></g></svg>